<svg width="371" height="95" viewBox="0 0 371 95" fill="none" xmlns="http://www.w3.org/2000/svg">
<path d="M79.541 16.6497V0.297316H90.9584V1.62533H81.6294V7.7897H90.6287V9.11771H81.6294V15.3217H90.9584V16.6497H79.541Z" fill="#A27858"/>
<path d="M121.135 16.9669C119.963 16.9669 118.933 16.8413 118.044 16.5903C117.156 16.3326 116.4 16.0254 115.777 15.6686C115.163 15.3052 114.669 14.9517 114.293 14.6082C113.927 14.2646 113.67 14.0069 113.524 13.8351L114.719 12.7252C114.884 12.9102 115.131 13.1612 115.461 13.4784C115.8 13.7889 116.23 14.106 116.753 14.4298C117.275 14.7469 117.902 15.0178 118.635 15.2424C119.368 15.4605 120.215 15.5695 121.177 15.5695C122.093 15.5695 122.926 15.4506 123.677 15.2127C124.437 14.9749 125.047 14.6214 125.505 14.1523C125.962 13.6832 126.191 13.1018 126.191 12.408C126.191 11.8266 126.031 11.3344 125.711 10.9313C125.399 10.5217 124.964 10.1748 124.405 9.89074C123.847 9.60664 123.205 9.35557 122.482 9.13754C121.767 8.9129 121.016 8.69486 120.229 8.48344C119.679 8.33148 119.102 8.15309 118.497 7.94827C117.902 7.73684 117.343 7.47587 116.821 7.16534C116.299 6.8482 115.873 6.46499 115.543 6.01571C115.223 5.56643 115.063 5.02465 115.063 4.39038C115.063 3.79574 115.218 3.23415 115.53 2.70558C115.841 2.17702 116.276 1.71122 116.835 1.30819C117.394 0.898557 118.062 0.578115 118.841 0.346869C119.619 0.115623 120.48 0 121.424 0C122.331 0 123.164 0.109016 123.924 0.327048C124.685 0.538473 125.349 0.809362 125.917 1.13971C126.494 1.46346 126.938 1.80042 127.249 2.15059L126.178 3.1912C125.921 2.88728 125.564 2.59657 125.106 2.31907C124.648 2.04158 124.108 1.81694 123.485 1.64515C122.871 1.46676 122.189 1.37757 121.438 1.37757C120.503 1.37757 119.707 1.52292 119.047 1.81363C118.397 2.10434 117.902 2.48094 117.563 2.94344C117.224 3.39932 117.055 3.88164 117.055 4.39038C117.055 4.85287 117.188 5.24599 117.453 5.56973C117.719 5.89348 118.072 6.16767 118.511 6.39231C118.951 6.61034 119.432 6.79864 119.954 6.95721C120.485 7.11578 121.016 7.26444 121.548 7.40319C122.436 7.64104 123.288 7.89541 124.103 8.1663C124.927 8.43058 125.66 8.74772 126.301 9.11771C126.943 9.4811 127.451 9.92708 127.826 10.4556C128.202 10.9776 128.39 11.6119 128.39 12.3585C128.39 13.3363 128.069 14.1688 127.428 14.8559C126.787 15.5431 125.921 16.0683 124.831 16.4317C123.741 16.7885 122.509 16.9669 121.135 16.9669Z" fill="#A27858"/>
<path d="M152.67 16.6497V0.297316H158.55C160.034 0.297316 161.316 0.482314 162.397 0.852308C163.478 1.2223 164.312 1.75087 164.898 2.438C165.493 3.12513 165.791 3.95101 165.791 4.91564C165.791 5.87366 165.493 6.71606 164.898 7.44283C164.312 8.163 163.478 8.7246 162.397 9.12763C161.316 9.52405 160.034 9.72226 158.55 9.72226H154.758V16.6497H152.67ZM154.758 8.45371H158.056C159.191 8.45371 160.176 8.31166 161.01 8.02755C161.852 7.74345 162.503 7.34042 162.961 6.81847C163.419 6.2899 163.648 5.66884 163.648 4.95528C163.648 4.22851 163.419 3.61075 162.961 3.102C162.503 2.58666 161.852 2.19684 161.01 1.93256C160.176 1.66167 159.191 1.52623 158.056 1.52623H154.758V8.45371Z" fill="#A27858"/>
<path d="M185.909 16.6497L194.839 0.297316H196.776L205.693 16.6497H203.44L200.678 11.4368H190.937L188.148 16.6497H185.909ZM191.638 10.1088H199.964L195.801 2.27943L191.638 10.1088Z" fill="#A27858"/>
<path d="M239.179 16.9669C237.485 16.9669 235.909 16.7521 234.453 16.3227C232.997 15.8932 231.724 15.2953 230.634 14.5289C229.553 13.7559 228.71 12.854 228.105 11.8233C227.501 10.7926 227.199 9.67931 227.199 8.48344C227.199 7.28757 227.501 6.17428 228.105 5.14358C228.71 4.11288 229.553 3.21432 230.634 2.44791C231.724 1.67488 232.992 1.07364 234.439 0.644186C235.896 0.214729 237.476 0 239.179 0C240.599 0 241.932 0.151962 243.178 0.455886C244.423 0.753202 245.522 1.16284 246.475 1.68479L245.486 2.94344C244.68 2.47434 243.745 2.11425 242.683 1.86318C241.62 1.61212 240.494 1.48658 239.303 1.48658C237.865 1.48658 236.546 1.66497 235.346 2.02175C234.155 2.37853 233.12 2.87406 232.241 3.50834C231.362 4.14261 230.679 4.88591 230.194 5.73821C229.718 6.59052 229.479 7.5056 229.479 8.48344C229.479 9.46128 229.718 10.3764 230.194 11.2287C230.679 12.081 231.362 12.8243 232.241 13.4585C233.12 14.0928 234.155 14.5883 235.346 14.9451C236.546 15.3019 237.865 15.4803 239.303 15.4803C240.494 15.4803 241.62 15.3548 242.683 15.1037C243.745 14.8526 244.68 14.4925 245.486 14.0234L246.475 15.2821C245.532 15.7974 244.437 16.2071 243.191 16.511C241.955 16.8149 240.617 16.9669 239.179 16.9669ZM238.712 22.5168C237.961 22.5168 237.279 22.3913 236.665 22.1402C236.061 21.8957 235.561 21.5489 235.168 21.0996L236.116 20.6437C236.683 21.3308 237.544 21.6744 238.699 21.6744C239.331 21.6744 239.839 21.5588 240.224 21.3275C240.617 21.0963 240.814 20.7957 240.814 20.4257C240.814 20.0755 240.636 19.7914 240.279 19.5734C239.93 19.3619 239.473 19.2562 238.905 19.2562C238.602 19.2562 238.273 19.2859 237.915 19.3454C237.567 19.4115 237.279 19.4941 237.05 19.5932L236.94 19.5337L238.094 16.9669H239.193L238.424 18.6616C238.717 18.6352 238.964 18.6219 239.166 18.6219C239.376 18.6285 239.573 18.6484 239.756 18.6814C240.443 18.7277 240.998 18.9093 241.419 19.2265C241.849 19.5502 242.065 19.9533 242.065 20.4356C242.065 21.0434 241.749 21.5423 241.117 21.9321C240.494 22.3219 239.692 22.5168 238.712 22.5168Z" fill="#A27858"/>
<path d="M279.826 16.9669C278.242 16.9669 276.758 16.7488 275.375 16.3128C273.992 15.8767 272.778 15.2722 271.734 14.4991C270.69 13.7195 269.87 12.8177 269.274 11.7936C268.688 10.7629 268.395 9.65949 268.395 8.48344C268.395 7.30078 268.688 6.1974 269.274 5.17331C269.87 4.14922 270.69 3.25066 271.734 2.47764C272.778 1.69801 273.992 1.09016 275.375 0.654097C276.758 0.218032 278.242 0 279.826 0C281.411 0 282.895 0.218032 284.278 0.654097C285.661 1.09016 286.875 1.69801 287.919 2.47764C288.963 3.25066 289.778 4.14922 290.364 5.17331C290.96 6.1974 291.257 7.30078 291.257 8.48344C291.257 9.65949 290.96 10.7629 290.364 11.7936C289.778 12.8177 288.963 13.7195 287.919 14.4991C286.875 15.2722 285.661 15.8767 284.278 16.3128C282.895 16.7488 281.411 16.9669 279.826 16.9669ZM279.826 15.51C281.118 15.51 282.318 15.3316 283.426 14.9749C284.534 14.6181 285.505 14.1192 286.339 13.4784C287.181 12.8375 287.836 12.0909 288.303 11.2386C288.771 10.3863 289.004 9.46789 289.004 8.48344C289.004 7.49899 288.771 6.58061 288.303 5.7283C287.836 4.876 287.181 4.1294 286.339 3.48852C285.505 2.84763 284.534 2.3488 283.426 1.99202C282.318 1.63524 281.118 1.45685 279.826 1.45685C278.535 1.45685 277.33 1.63524 276.213 1.99202C275.104 2.3488 274.134 2.84763 273.3 3.48852C272.467 4.1294 271.812 4.876 271.335 5.7283C270.868 6.58061 270.635 7.49899 270.635 8.48344C270.635 9.46789 270.868 10.3863 271.335 11.2386C271.812 12.0909 272.467 12.8375 273.3 13.4784C274.134 14.1192 275.104 14.6181 276.213 14.9749C277.33 15.3316 278.535 15.51 279.826 15.51Z" fill="#A27858"/>
<path d="M0 68.1752C0 61.0552 2.54293 54.952 7.50163 49.9933C12.4603 45.0346 18.5634 42.4917 25.6836 42.4917C33.1851 42.4917 39.4152 45.289 44.5011 50.7562C45.1368 51.5192 45.5184 52.2818 45.5184 53.0448C45.5184 54.5706 43.484 56.605 41.9581 56.605C41.0683 56.605 40.3054 56.2234 39.5424 55.3336C35.8552 51.2648 31.151 49.2304 25.6836 49.2304C20.4705 49.2304 15.8933 51.1376 12.206 54.8248C8.51881 58.5123 6.73875 62.9624 6.73875 68.1752C6.73875 73.3882 8.51881 77.9656 12.206 81.6528C15.8933 85.34 20.4705 87.12 25.6836 87.12C31.4051 87.12 36.1096 84.9587 39.924 80.6357C40.6867 79.7456 41.5768 79.2371 42.467 79.2371C43.9926 79.2371 46.027 81.0171 46.027 82.6698C46.027 83.3056 45.6456 84.0685 45.0099 84.9587C39.7968 90.9344 33.4395 93.8589 25.6836 93.8589C18.4362 93.8589 12.3332 91.4429 7.37448 86.4842C2.41578 81.5256 0 75.4227 0 68.1752Z" fill="#A27858"/>
<path d="M60.5938 68.1752C60.5938 61.0552 63.1367 54.952 68.0954 49.9933C73.054 45.0346 79.1569 42.4917 86.2772 42.4917C93.3975 42.4917 99.5004 45.0346 104.459 49.9933C109.418 54.952 111.961 61.0552 111.961 68.1752C111.961 75.4227 109.418 81.5256 104.459 86.4842C99.5004 91.4429 93.5244 93.8589 86.2772 93.8589C79.1569 93.8589 73.054 91.316 68.0954 86.357C63.1367 81.3984 60.5938 75.2954 60.5938 68.1752ZM67.3324 68.1752C67.3324 73.3882 69.1124 77.9656 72.7996 81.6528C76.4868 85.34 81.0641 87.12 86.2772 87.12C91.4903 87.12 95.9401 85.34 99.6276 81.6528C103.315 77.9656 105.222 73.3882 105.222 68.1752C105.222 62.9624 103.315 58.5123 99.6276 54.8248C95.9401 51.1376 91.4903 49.2304 86.2772 49.2304C81.0641 49.2304 76.4868 51.1376 72.7996 54.8248C69.1124 58.5123 67.3324 62.9624 67.3324 68.1752Z" fill="#A27858"/>
<path d="M126.525 65.7597C126.525 59.5295 129.196 54.1893 134.663 49.6122C140.13 44.9077 145.979 42.6191 151.955 42.6191C159.075 42.6191 165.178 45.0349 170.137 49.8663C175.095 54.6981 177.638 60.6738 177.638 67.6669V90.4261C177.638 92.5877 176.494 93.732 174.332 93.732C172.044 93.732 170.9 92.5877 170.9 90.4261V67.7941C170.9 62.581 168.992 58.2581 165.305 54.6981C161.618 51.1378 157.168 49.3578 151.955 49.3578C147.25 49.3578 143.054 50.8837 139.494 54.0624C135.934 57.241 133.9 61.1823 133.264 65.8869V90.2989C133.264 92.5877 132.12 93.732 129.831 93.732C127.67 93.732 126.525 92.5877 126.525 90.2989V65.7597Z" fill="#A27858"/>
<path d="M205.912 66.8882C205.912 59.9213 208.251 54.2211 212.93 49.6612C217.609 44.9743 223.107 42.6943 229.54 42.6943C231.646 42.6943 232.698 43.8343 232.698 46.1143C232.698 48.2678 231.646 49.4078 229.54 49.4078C224.861 49.4078 220.767 51.0546 217.258 54.4746C213.866 57.7681 212.112 61.9481 212.112 66.8882V70.1817C212.112 77.1485 209.772 82.8487 205.093 87.2822C200.414 91.7156 194.8 93.8689 188.366 93.8689C186.378 93.8689 185.325 92.7289 185.325 90.4489C185.325 88.2954 186.378 87.1554 188.366 87.1554C193.045 87.1554 197.139 85.6353 200.648 82.4685C204.157 79.3021 205.912 75.1217 205.912 70.1817V66.8882Z" fill="#A27858"/>
<path d="M257.035 89.1728C258.549 89.1728 259.349 89.9702 259.349 91.5651C259.349 93.0712 256.947 94.3074 255.434 94.3074C250.183 94.3074 245.599 93.3369 242.128 89.1728C238.835 85.1858 237.011 79.0724 237.011 73.7564V39.8228C237.011 38.228 238.714 36.8457 240.227 36.8457C241.829 36.8457 243.775 38.228 243.775 39.8228V54.9733H257.214C258.727 54.9733 259.528 55.7707 259.528 57.2769C259.528 58.8717 258.727 59.669 257.214 59.669H243.775V73.7564C243.775 77.7434 244.932 81.2874 247.335 84.2998C249.916 87.5781 253.12 89.1728 257.035 89.1728Z" fill="#A27858"/>
<path d="M278.94 67.9211C278.94 60.6736 281.355 54.6979 286.314 49.7392C291.274 44.7802 297.377 42.2373 304.623 42.2373C306.784 42.2373 307.93 43.3819 307.93 45.6704C307.93 47.832 306.784 48.9763 304.623 48.9763C299.412 48.9763 294.833 50.8835 291.145 54.5707C287.461 58.2579 285.68 62.708 285.68 67.9211V90.5531C285.68 92.7144 284.533 93.859 282.247 93.859C280.085 93.859 278.94 92.7144 278.94 90.5531V67.9211Z" fill="#A27858"/>
<path d="M322.725 42.4917C325.015 42.4917 326.158 43.636 326.158 45.7976V68.9381C326.158 74.1512 327.939 78.6013 331.627 82.1613C335.314 85.5944 339.891 87.3744 345.105 87.3744C354.766 87.3744 362.65 80.3813 363.794 70.8453V45.9248C363.794 43.636 364.937 42.4917 367.227 42.4917C369.388 42.4917 370.531 43.636 370.531 45.9248V71.0997C370.531 77.3299 367.861 82.6698 362.522 87.2472C357.182 91.8245 351.333 94.1131 345.105 94.1131C337.984 94.1131 331.881 91.6973 326.922 86.8659C321.962 82.0341 319.421 76.0584 319.421 69.0653V45.7976C319.421 43.636 320.564 42.4917 322.725 42.4917Z" fill="#A27858"/>
</svg>
