<svg width="91" height="91" viewBox="0 0 91 91" fill="none" xmlns="http://www.w3.org/2000/svg">
<circle cx="44" cy="47" r="37" fill="#FFF8F8"/>
<path fill-rule="evenodd" clip-rule="evenodd" d="M88.1261 58.0364C84.8858 65.4317 79.2905 71.8749 71.6365 76.1832C61.2563 82.0235 49.2231 82.7536 38.5405 79.1764C32.9348 77.5755 27.6274 74.7377 23.001 70.9592C29.7508 77.5849 38.9483 81.9161 49.2992 82.52C63.7614 83.3668 76.9001 76.7276 84.696 66.0575C84.4905 66.5268 87.2751 61.3706 88.1261 58.0364Z" fill="#009345"/>
<path fill-rule="evenodd" clip-rule="evenodd" d="M19.2248 17.7443C7.14258 25.0124 0.914261 37.2552 1.54001 49.643C1.5708 50.2191 1.66239 50.7903 1.81326 51.3471C1.7924 50.2177 1.81952 49.0778 1.90921 47.9326C2.76336 36.6524 8.80395 26.8135 17.8774 20.0137C21.4389 17.1154 25.717 14.7897 30.4331 13.0803C26.4892 14.079 22.713 15.6503 19.2248 17.7443Z" fill="#009345"/>
<path fill-rule="evenodd" clip-rule="evenodd" d="M75.7929 18.5419C66.6423 2.68119 45.2072 1.42969 45.2072 1.42969C76.8014 8.89074 78.5806 33.2742 77.861 41.8063C76.014 63.5721 57.5845 75.573 39.1426 77.8319C46.7559 77.8382 56.2183 75.7273 63.0651 71.3137C81.3204 59.5328 86.3441 36.84 75.7929 18.5419Z" fill="#FFF100"/>
<path fill-rule="evenodd" clip-rule="evenodd" d="M3.00111 51.4451C3.00111 73.2922 22.0146 90.9999 45.4699 90.9999C64.1851 90.9999 80.0729 79.7249 85.7266 64.0686C78.6233 75.1715 65.9424 82.5679 51.4802 82.5679C29.2295 82.5679 11.1912 65.0677 11.1912 43.4897C11.1912 34.9868 13.9945 27.1159 18.7471 20.7019C9.14182 27.9554 2.99902 39.0312 2.99902 51.4472L3.00111 51.4451Z" fill="url(#paint0_linear_4369_196)"/>
<path fill-rule="evenodd" clip-rule="evenodd" d="M39.4538 1.23169C52.6749 0.743607 65.7615 6.65488 73.5511 18.0008C85.5447 35.452 80.4583 59.1482 62.1989 70.9248C55.2573 75.407 47.1186 77.6763 38.8594 77.4327C50.1636 81.012 62.8445 79.7834 73.3435 73.0096C91.8189 61.087 96.5579 36.5074 83.9198 18.1124C75.8684 6.3858 62.7005 5.39664e-06 49.4252 5.39664e-06C46.0634 -0.00172352 42.7142 0.411974 39.4538 1.23169Z" fill="url(#paint1_linear_4369_196)"/>
<path fill-rule="evenodd" clip-rule="evenodd" d="M38.9779 2.6814C30.3253 2.6893 21.912 5.52301 15.0178 10.7515C1.66845 20.8585 -3.09561 37.5869 1.99175 51.9563C0.591109 40.0962 5.32909 27.9044 15.6436 20.0909C31.5189 8.07016 54.5758 10.9737 67.1482 26.5664C72.0979 32.7123 74.6875 39.9095 75.0327 47.1119C77.6587 36.6827 75.5854 25.3628 68.358 16.3927C61.094 7.38601 50.2018 2.69495 39.079 2.6814H38.9747H38.9779Z" fill="url(#paint2_linear_4369_196)"/>
<path fill-rule="evenodd" clip-rule="evenodd" d="M23.6589 46.9638H26.4342C27.3728 46.9638 28.035 46.7802 28.4157 46.4131C28.7964 46.046 28.9924 45.5548 28.9924 44.9343C28.9924 44.3606 28.8016 43.8983 28.4199 43.5472C28.0382 43.1999 27.377 43.0257 26.4185 43.0257H23.6589V46.9648V46.9638ZM23.6589 39.3233H26.0264C26.8722 39.3233 27.4656 39.1627 27.7993 38.8415C28.1331 38.5203 28.2999 38.0499 28.2999 37.4409C28.2999 36.8756 28.131 36.4334 27.7993 36.1132C27.4677 35.7931 26.891 35.6356 26.065 35.6356H23.6662V39.3233H23.6589ZM18.168 31.6975H28.3573C30.0559 31.6975 31.3592 32.1613 32.2672 33.0888C33.1752 34.0163 33.63 35.1663 33.6313 36.5387C33.6313 37.688 33.3077 38.6739 32.6604 39.4965C32.2255 40.045 31.5935 40.4779 30.7571 40.798C32.0239 41.1325 32.9566 41.7085 33.5552 42.5261C34.1538 43.3438 34.4511 44.3714 34.4469 45.609C34.4628 46.5542 34.2446 47.4886 33.8118 48.329C33.4096 49.1088 32.8075 49.7678 32.067 50.2385C31.6133 50.5316 30.926 50.7423 30.0041 50.8758C28.7786 51.052 27.9631 51.1428 27.5626 51.1428H18.168V31.6975Z" fill="#231F20"/>
<path fill-rule="evenodd" clip-rule="evenodd" d="M37.3223 31.6975H50.7759C50.7759 31.6975 50.6998 33.1367 50.0021 34.2495C49.2314 35.4791 48.1697 35.8765 48.1697 35.8765H42.7903V39.2733H49.6152C49.6152 39.2733 49.4535 40.8231 48.5545 41.6939C47.6263 42.5971 46.3268 43.1967 46.3268 43.1967H42.7903V51.1417H37.3223V31.6975Z" fill="#231F20"/>
<path fill-rule="evenodd" clip-rule="evenodd" d="M63.5038 31.6975H52.4854C52.4854 31.6975 52.4853 33.5028 53.5116 34.8732C54.6192 36.3468 55.7382 36.5022 55.7382 36.5022H58.0222V51.1448H63.4767V36.5022H65.7617C65.7617 36.5022 66.8808 36.35 67.9873 34.8763C69.0167 33.5059 69.0167 31.7006 69.0167 31.7006L63.5038 31.6975Z" fill="#231F20"/>
<path fill-rule="evenodd" clip-rule="evenodd" d="M31.06 56.862C30.8176 57.3224 30.4518 57.7063 30.0036 57.9706C29.5467 58.2392 29.0265 58.381 28.4965 58.3815C27.7328 58.3857 26.9984 58.088 26.4532 57.5531C25.908 57.0183 25.5962 56.2897 25.5858 55.526C25.5765 55.1484 25.6484 54.7732 25.7967 54.4257C25.9449 54.0783 26.1661 53.7667 26.4451 53.5121C26.717 53.25 27.0385 53.0448 27.3908 52.9087C27.7431 52.7726 28.119 52.7083 28.4965 52.7195C29.0371 52.7181 29.5681 52.8622 30.0338 53.1367C30.4678 53.4032 30.8222 53.7814 31.06 54.2318H30.4218C29.9518 53.5685 29.2954 53.2417 28.4527 53.2514C28.1526 53.2473 27.8546 53.3033 27.5765 53.4161C27.2983 53.529 27.0455 53.6964 26.8331 53.9085C26.6153 54.1117 26.4407 54.3567 26.3195 54.6289C26.1984 54.901 26.1333 55.1948 26.1281 55.4926C26.117 55.803 26.172 56.1123 26.2892 56.3999C26.4064 56.6875 26.5832 56.947 26.8081 57.1613C27.0272 57.3867 27.2899 57.565 27.5802 57.6855C27.8705 57.806 28.1823 57.8661 28.4965 57.8622C28.888 57.8591 29.2726 57.7587 29.6156 57.5701C29.94 57.4075 30.2191 57.1671 30.428 56.8703L31.06 56.862Z" fill="#009345"/>
<path fill-rule="evenodd" clip-rule="evenodd" d="M36.1894 55.5262C36.1896 55.2198 36.1246 54.9168 35.9987 54.6373C35.8729 54.3579 35.689 54.1085 35.4593 53.9055C34.9996 53.4684 34.3864 53.2294 33.7521 53.2401C33.4407 53.2354 33.1314 53.2929 32.8426 53.4093C32.5537 53.5258 32.291 53.6987 32.0699 53.918C31.8474 54.1263 31.6701 54.378 31.5488 54.6576C31.4276 54.9372 31.3651 55.2387 31.3651 55.5434C31.3651 55.8482 31.4276 56.1497 31.5488 56.4292C31.6701 56.7088 31.8474 56.9605 32.0699 57.1688C32.5283 57.608 33.1382 57.8538 33.773 57.8551C34.4079 57.8565 35.0189 57.6133 35.4792 57.1761C35.7082 56.9676 35.8901 56.7125 36.0126 56.4279C36.1351 56.1434 36.1954 55.836 36.1894 55.5262ZM36.7327 55.4897C36.7369 55.8716 36.6619 56.2503 36.5123 56.6018C36.3628 56.9532 36.142 57.2699 35.864 57.5318C35.5901 57.8062 35.2639 58.0228 34.9047 58.1688C34.5455 58.3148 34.1606 58.3872 33.7729 58.3817C32.9925 58.3927 32.2387 58.0981 31.6725 57.561C31.392 57.3151 31.168 57.0114 31.0159 56.6708C30.8638 56.3302 30.7871 55.9607 30.7912 55.5878C30.7865 55.208 30.8607 54.8314 31.0092 54.4819C31.1576 54.1323 31.3771 53.8174 31.6537 53.5572C31.9258 53.2818 32.2509 53.0645 32.6095 52.9186C32.9681 52.7727 33.3525 52.7011 33.7396 52.7083C34.5198 52.6958 35.2746 52.9854 35.8463 53.5165C36.1286 53.7612 36.3542 54.0645 36.5073 54.4053C36.6605 54.746 36.7374 55.1161 36.7327 55.4897Z" fill="#009345"/>
<path fill-rule="evenodd" clip-rule="evenodd" d="M43.1762 58.273H42.6026V53.4329L40.4531 58.273H39.9765L37.8594 53.4391V58.273H37.2764V52.7883H38.1712L40.1986 57.5096L42.3064 52.7883H43.1762V58.273Z" fill="#009345"/>
<path fill-rule="evenodd" clip-rule="evenodd" d="M46.9775 54.3862C46.97 54.234 46.9286 54.0853 46.8565 53.9511C46.7843 53.8169 46.6831 53.7004 46.5603 53.6102C46.2972 53.4108 45.9747 53.3057 45.6446 53.312H44.39V55.596H45.679C46.0157 55.606 46.3438 55.4887 46.5978 55.2674C46.7283 55.1629 46.8309 55.0277 46.8965 54.874C46.9622 54.7203 46.9889 54.5527 46.9743 54.3862H46.9775ZM47.5563 54.5145C47.5577 54.7286 47.5117 54.9403 47.4215 55.1345C47.3314 55.3288 47.1993 55.5006 47.0348 55.6377C46.694 55.9396 46.2521 56.1023 45.7969 56.0934H44.39V58.2731H43.8018V52.7968H45.6164C46.1266 52.78 46.6247 52.9544 47.0129 53.2859C47.192 53.435 47.3342 53.6234 47.4285 53.8365C47.5228 54.0496 47.5665 54.2816 47.5563 54.5145Z" fill="#009345"/>
<path fill-rule="evenodd" clip-rule="evenodd" d="M50.3316 55.9308L49.2574 53.4278L48.1592 55.9308H50.3316ZM51.9648 58.2732H51.3391L50.5318 56.422H47.911L47.1194 58.2721H46.4092L48.9383 52.7864H49.564L51.9648 58.2732Z" fill="#009345"/>
<path fill-rule="evenodd" clip-rule="evenodd" d="M56.8187 58.273H56.1866L52.9359 53.5027V58.273H52.3477V52.7883H53.1121L56.2346 57.3928V52.7883H56.8187V58.273Z" fill="#009345"/>
<path fill-rule="evenodd" clip-rule="evenodd" d="M61.6004 52.7812L59.6658 56.4283V58.2722H59.0922V56.4231L57.1826 52.7812H57.774L59.3717 55.8673L60.9715 52.7812H61.6004Z" fill="#009345"/>
<defs>
<linearGradient id="paint0_linear_4369_196" x1="3.00111" y1="55.8504" x2="85.7276" y2="55.8504" gradientUnits="userSpaceOnUse">
<stop stop-color="#898888"/>
<stop offset="0.73" stop-color="#1F1F1E"/>
</linearGradient>
<linearGradient id="paint1_linear_4369_196" x1="29.9362" y1="66.7406" x2="68.9069" y2="24.4763" gradientUnits="userSpaceOnUse">
<stop stop-color="#898888"/>
<stop offset="0.73" stop-color="#1F1F1E"/>
</linearGradient>
<linearGradient id="paint2_linear_4369_196" x1="2.89283" y1="27.3183" x2="74.6854" y2="27.3183" gradientUnits="userSpaceOnUse">
<stop offset="0.15" stop-color="#1F1F1E"/>
<stop offset="0.9" stop-color="#898888"/>
</linearGradient>
</defs>
</svg>
