<svg width="116" height="54" viewBox="0 0 116 54" fill="none" xmlns="http://www.w3.org/2000/svg">
<path d="M14.3525 40.1217L0 0H8.78763L18.9192 29.6966L28.7637 0H37.3556L23.0031 40.1217H14.3525Z" fill="white"/>
<path d="M39.3584 40.1217V0H47.4545V40.1217H39.3584Z" fill="white"/>
<path d="M74.0391 0H65.4733L49.8486 40.1217H58.4405L61.7547 31.0079L64.2403 24.2492L69.6616 9.36173L75.1873 24.2492L77.7903 31.0079L81.2936 40.1217H90.1073L74.0391 0Z" fill="white"/>
<path d="M115.172 0.104492V8.5855C115.197 9.83721 115.127 11.089 114.963 12.3302C114.837 13.1224 114.538 13.8774 114.089 14.5418C113.63 15.2096 113.025 15.7649 112.321 16.1662C111.568 16.6028 110.712 16.8282 109.842 16.8186C108.874 16.8253 107.925 16.5462 107.115 16.0162C106.295 15.4893 105.646 14.7342 105.249 13.8437C104.95 15.0175 104.277 16.0618 103.331 16.8186C102.415 17.5132 101.291 17.8786 100.141 17.8559C99.1656 17.8606 98.2027 17.6372 97.3291 17.2035C96.4585 16.788 95.7085 16.157 95.1502 15.3703C94.5744 14.5156 94.2284 13.527 94.1455 12.4998C94.0672 11.7909 94.0194 10.0729 94.002 7.34597V0.104492H115.172ZM103.227 4.38414H97.5705V8.33759C97.54 9.31789 97.5814 10.2991 97.6945 11.2733C97.7928 11.8721 98.0919 12.4196 98.5426 12.826C99.0461 13.245 99.6889 13.4592 100.343 13.4262C100.917 13.4427 101.483 13.2809 101.961 12.963C102.416 12.6301 102.754 12.162 102.927 11.6256C103.192 10.3807 103.293 9.1064 103.227 7.83526V4.38414ZM111.649 4.38414H106.75V7.17635C106.75 8.84645 106.75 9.87722 106.828 10.2817C106.876 10.9273 107.143 11.5372 107.585 12.0105C107.8 12.2264 108.058 12.3957 108.342 12.5079C108.626 12.6201 108.93 12.6729 109.235 12.6629C109.817 12.6879 110.387 12.4948 110.833 12.1214C111.273 11.6891 111.532 11.1062 111.558 10.4905C111.603 10.0664 111.629 8.85298 111.629 6.83711L111.649 4.38414Z" fill="white"/>
<path d="M94.002 21.4702H115.172V30.4666C115.25 32.1305 115.058 33.7959 114.604 35.3986C114.219 36.4155 113.505 37.2744 112.575 37.8386C111.575 38.4649 110.415 38.7868 109.235 38.7649C107.8 38.8107 106.401 38.3093 105.321 37.3623C104.192 36.2426 103.498 34.7581 103.364 33.174C102.887 34.0199 102.289 34.7914 101.589 35.4639C100.516 36.3732 99.3656 37.1875 98.1511 37.8973L94.0215 40.5068V35.3921L98.6274 32.2998C99.7113 31.6163 100.751 30.8645 101.739 30.0491C102.136 29.6936 102.439 29.2453 102.62 28.7443C102.81 28.0455 102.891 27.3216 102.861 26.598V25.7433H94.002V21.4702ZM106.221 25.7433V28.9074C106.157 30.1916 106.243 31.4789 106.476 32.7434C106.637 33.2256 106.954 33.6408 107.376 33.9242C107.848 34.2273 108.401 34.3797 108.961 34.3613C109.588 34.3887 110.204 34.1843 110.69 33.7872C111.15 33.3663 111.444 32.7947 111.518 32.1759C111.564 31.8301 111.59 30.7928 111.59 29.0575V25.7433H106.221Z" fill="white"/>
<path d="M45.7448 50.834L46.8734 51.1145C46.6989 51.942 46.2507 52.6866 45.6013 53.2283C44.959 53.7265 44.163 53.9849 43.3506 53.9589C42.5617 53.9945 41.7796 53.7996 41.0998 53.3979C40.5087 53.0058 40.053 52.4408 39.7951 51.78C39.4921 51.0572 39.339 50.2804 39.3449 49.4966C39.3278 48.6959 39.4999 47.9024 39.8473 47.1807C40.1657 46.5369 40.6764 46.0079 41.3086 45.6671C41.9409 45.3232 42.6504 45.1458 43.3701 45.1517C44.1377 45.1286 44.8917 45.3577 45.5165 45.8041C46.1119 46.2592 46.5389 46.8996 46.7299 47.6243L45.6209 47.8852C45.4825 47.356 45.1812 46.8836 44.7597 46.5348C44.3474 46.2413 43.8498 46.0923 43.344 46.1108C42.7622 46.0898 42.1888 46.2543 41.7066 46.5805C41.2717 46.891 40.9472 47.332 40.7802 47.8396C40.6037 48.3653 40.5134 48.916 40.5127 49.4705C40.5015 50.1176 40.6099 50.7612 40.8324 51.369C41.0129 51.8722 41.3606 52.2982 41.8175 52.5759C42.252 52.8394 42.7511 52.9771 43.2592 52.9738C43.8401 52.9933 44.4082 52.8009 44.8576 52.4324C45.3251 52.0149 45.6378 51.4516 45.7448 50.834Z" fill="white"/>
<path d="M47.7412 53.8155V45.3345H53.8932V46.3196H48.8698V48.9291H53.5735V49.9273H48.8698V52.8434H54.0889V53.8481L47.7412 53.8155Z" fill="white"/>
<path d="M55.3672 53.8153V45.3343H56.5219L60.9907 52.0082V45.3147H62.0672V53.7957H60.9125L56.4501 47.1349V53.8153H55.3672Z" fill="white"/>
<path d="M63.0323 49.6728C62.9606 48.4804 63.3246 47.3026 64.0566 46.3586C64.3733 45.9752 64.7724 45.6682 65.2242 45.4604C65.676 45.2526 66.1689 45.1493 66.6661 45.1583C67.3439 45.1506 68.0081 45.3485 68.5711 45.7258C69.1505 46.1081 69.6044 46.6527 69.8759 47.2915C70.1803 48.0137 70.3314 48.7913 70.3195 49.5749C70.3326 50.3718 70.1723 51.162 69.8498 51.8909C69.5819 52.5267 69.1268 53.066 68.545 53.437C67.9875 53.779 67.3462 53.9596 66.6922 53.9589C65.9955 53.9726 65.3116 53.7698 64.7351 53.3783C64.1573 52.9857 63.7044 52.4355 63.4303 51.793C63.1541 51.1209 63.0187 50.3993 63.0323 49.6728ZM64.0762 49.6728C64.0264 50.5425 64.2903 51.4013 64.8199 52.0931C65.0469 52.3691 65.3323 52.5914 65.6555 52.744C65.9786 52.8966 66.3316 52.9757 66.689 52.9757C67.0463 52.9757 67.3993 52.8966 67.7225 52.744C68.0456 52.5914 68.331 52.3691 68.558 52.0931C69.0847 51.3653 69.345 50.4784 69.2952 49.5814C69.3096 48.9617 69.2009 48.3453 68.9756 47.7678C68.7925 47.2866 68.4727 46.8694 68.0557 46.5674C67.6568 46.2868 67.1799 46.1385 66.6922 46.1434C66.3433 46.1422 65.998 46.2155 65.6797 46.3584C65.3613 46.5012 65.0771 46.7104 64.846 46.9719C64.3306 47.5003 64.0762 48.4137 64.0762 49.6923V49.6728Z" fill="white"/>
<path d="M75.1537 50.4817V49.4836H78.7549V52.6346C78.2412 53.0552 77.6643 53.392 77.0456 53.6327C76.4661 53.8523 75.8517 53.965 75.232 53.9654C74.4406 53.9767 73.6587 53.793 72.9552 53.4305C72.2905 53.0868 71.7499 52.5439 71.409 51.8778C71.0562 51.1736 70.8773 50.3951 70.8871 49.6075C70.8832 48.8059 71.0616 48.014 71.409 47.2915C71.7162 46.6014 72.2409 46.0308 72.903 45.6671C73.596 45.3093 74.3674 45.1299 75.1472 45.1452C75.7157 45.1391 76.2802 45.241 76.8108 45.4453C77.2686 45.6158 77.6736 45.9038 77.9851 46.2803C78.2995 46.6915 78.522 47.1654 78.6374 47.6699L77.6262 47.9505C77.5297 47.5834 77.3684 47.2366 77.15 46.9262C76.9347 46.6605 76.6535 46.4558 76.3345 46.3325C75.9645 46.1797 75.5671 46.1043 75.1667 46.1107C74.7208 46.1046 74.2778 46.1843 73.862 46.3456C73.5132 46.4898 73.2028 46.7131 72.9552 46.998C72.733 47.2457 72.5523 47.5276 72.4202 47.833C72.2002 48.3781 72.0893 48.961 72.094 49.5488C72.0723 50.2037 72.2064 50.8544 72.4854 51.4472C72.7279 51.9445 73.1298 52.3464 73.6271 52.5889C74.1205 52.8309 74.6629 52.9559 75.2124 52.9542C75.7024 52.9551 76.1878 52.8598 76.6411 52.6737C77.0032 52.5253 77.3382 52.3181 77.6328 52.0605V50.4817H75.1537Z" fill="white"/>
<path d="M80.2432 53.8156V45.3346H84.0139C84.5992 45.3077 85.1846 45.385 85.7428 45.5629C86.1414 45.7163 86.4753 46.0019 86.6887 46.3719C86.9287 46.7641 87.051 47.2169 87.041 47.6766C87.0487 47.9572 87.0008 48.2366 86.9001 48.4986C86.7993 48.7606 86.6476 49.0001 86.4539 49.2032C85.9591 49.6646 85.3215 49.9431 84.6468 49.9926C84.8822 50.1042 85.1016 50.2468 85.2991 50.4166C85.6556 50.7529 85.9689 51.132 86.2321 51.5453L87.713 53.8612H86.2973L85.1687 52.0933C84.8425 51.5779 84.5685 51.193 84.3597 50.919C84.1978 50.7022 84.0043 50.5108 83.7856 50.3514C83.6293 50.2486 83.4575 50.1715 83.2768 50.1231C83.061 50.09 82.8426 50.0769 82.6244 50.0839H81.3196V53.8612L80.2432 53.8156ZM81.3718 49.0662H83.7856C84.1944 49.0831 84.6029 49.0279 84.9925 48.9031C85.2616 48.8127 85.4918 48.6332 85.6449 48.3942C85.7964 48.1687 85.876 47.9026 85.8733 47.631C85.8757 47.444 85.8379 47.2587 85.7625 47.0876C85.6871 46.9165 85.5758 46.7637 85.4362 46.6393C85.0372 46.3473 84.5456 46.2105 84.0531 46.2544H81.3653L81.3718 49.0662Z" fill="white"/>
<path d="M89.0371 53.8284L92.299 45.3474H93.5125L96.9897 53.8284H95.6849L94.6933 51.2189H91.1378L90.2049 53.8284H89.0371ZM91.4901 50.3382H94.3736L93.4864 47.983C93.2189 47.2654 93.0167 46.6783 92.8862 46.2216C92.7735 46.7734 92.6208 47.3163 92.4295 47.846L91.4901 50.3382Z" fill="white"/>
<path d="M98.2686 53.8155V45.3345H104.003V46.3196H99.3907V48.9291H103.383V49.9338H99.3907V53.7959L98.2686 53.8155Z" fill="white"/>
<path d="M105.354 53.8155V45.3345H106.482V53.8155H105.354Z" fill="white"/>
<path d="M108.048 53.8155L111.31 45.3345H112.523L116 53.8155H114.696L113.704 51.2386H110.149L109.216 53.8155H108.048ZM110.501 50.3252H113.384L112.497 47.9701C112.23 47.2525 112.027 46.6653 111.897 46.2021C111.787 46.7553 111.632 47.2985 111.434 47.8266L110.501 50.3252Z" fill="white"/>
</svg>
