<svg width="208" height="47" viewBox="0 0 208 47" fill="none" xmlns="http://www.w3.org/2000/svg">
<path fill-rule="evenodd" clip-rule="evenodd" d="M85.1271 11.8973C85.0966 11.0287 85.1204 10.159 85.1986 9.2934C85.305 8.40239 85.4965 7.52362 85.7704 6.6691C85.9689 6.0817 86.2148 5.5114 86.5056 4.96382C87.0465 3.96875 87.7952 3.10171 88.7008 2.42161C89.6064 1.7415 90.6478 1.26425 91.7542 1.02227C93.1827 0.73919 94.6383 0.615896 96.094 0.654664C102.946 0.654664 105.07 0.654664 105.856 0.654664C107.174 0.69698 108.483 0.892303 109.757 1.23671C111.191 1.64612 112.466 2.48324 113.412 3.63636C114.608 5.28718 115.331 7.23211 115.506 9.26277C115.802 12.6938 115.312 15.5325 113.586 17.8607C112.717 18.8937 111.624 19.7145 110.39 20.2603C108.041 21.2202 107.449 20.9853 96.3085 21.0364C94.7153 21.0699 93.1225 20.9571 91.55 20.6994C89.7935 20.2368 88.2413 19.202 87.1387 17.7585C86.9586 17.5193 86.7916 17.2704 86.6384 17.0131C85.7578 15.4241 85.2416 13.6593 85.1271 11.8462V11.8973ZM102.384 5.71946C101.935 5.71946 97.7891 5.71946 96.7475 5.71946C94.7053 5.80115 94.4092 5.71946 93.4697 6.00537C90.294 7.08777 90.5901 11.9892 91.0905 13.4392C91.8563 15.6857 92.5507 15.9205 94.3479 16.2881C95.6984 16.5003 97.0672 16.5722 98.4324 16.5026C103.967 16.5026 103.967 16.5026 106.019 16.3902C106.813 16.336 107.578 16.0717 108.235 15.6244C109.019 15.0323 109.554 14.1695 109.736 13.2043C109.977 11.9137 110.001 10.592 109.808 9.2934C109.731 8.57743 109.463 7.89531 109.032 7.3186C108.6 6.74188 108.022 6.29181 107.357 6.01558C106.979 5.87262 106.652 5.73988 102.354 5.71946H102.384Z" fill="#676766"/>
<path fill-rule="evenodd" clip-rule="evenodd" d="M76.6925 6.48527V20.5768C76.6108 20.9546 76.5291 20.9444 76.1411 20.9444C75.753 20.9444 71.3214 20.9444 71.158 20.9444C70.7904 20.8423 70.821 20.7504 70.8108 20.3624C70.8006 19.9744 70.8108 6.19935 70.8108 6.06661C70.8108 5.93386 70.3717 5.78069 70.3309 5.78069C69.3097 5.78069 53.1044 5.78069 51.2358 5.78069C46.4977 5.58668 45.4868 6.43421 44.6801 7.60851C43.659 9.0483 43.077 13.8782 45.6298 15.6141C46.2105 15.9884 46.8655 16.2322 47.5495 16.3289C48.5706 16.5944 49.459 16.4719 55.79 16.4719H61.9168C62.7337 16.4719 62.315 16.911 61.9168 17.6462C61.9168 17.6972 60.5587 20.1479 60.4055 20.4747C60.3224 20.6726 60.2125 20.8582 60.0787 21.0261C59.7009 21.3018 59.6499 21.0261 55.9942 21.0874C52.9308 21.0874 52.9308 21.1384 49.8675 21.1487C48.3432 21.2126 46.8163 21.1477 45.303 20.9546C43.9989 20.753 42.7547 20.2686 41.6576 19.5353C40.5443 18.7726 39.6473 17.7349 39.0537 16.5229C38.9414 16.3085 38.4921 15.2057 38.4308 15.0015C37.8987 13.18 37.7321 11.2713 37.9407 9.38527C38.1237 7.57626 38.7865 5.84893 39.8604 4.38175C40.535 3.45127 41.3806 2.65769 42.352 2.04337C43.4562 1.39886 44.6784 0.982207 45.9463 0.818012C47.5189 0.521885 49.8879 0.705688 61.396 0.623998C68.1967 0.623998 76.1921 0.787379 85.0351 0.623998C85.2441 0.611641 85.4538 0.628829 85.658 0.675055C85.8622 0.848646 85.7192 0.899703 85.4129 1.92083C85.4129 2.05358 85.3619 2.04337 84.8615 3.47294C84.1263 5.61731 83.9527 5.66837 83.7689 5.72963C83.5851 5.7909 77.3664 5.65816 76.9886 5.72963C76.6108 5.80111 76.6925 6.26062 76.6925 6.46485V6.48527Z" fill="#676766"/>
<path fill-rule="evenodd" clip-rule="evenodd" d="M199.116 0.287232C200.364 0.327741 201.59 0.6263 202.716 1.16409C203.843 1.70187 204.846 2.46722 205.662 3.41188C206.101 3.9855 206.494 4.5933 206.836 5.22949C207.677 7.12288 208.071 9.18407 207.99 11.2541C207.929 14.0316 207.255 18.2489 202.976 20.4443C202.363 20.7434 201.724 20.9861 201.067 21.1693C200.454 21.3531 194.94 22.4865 191.58 18.3305C190.823 17.3629 190.239 16.2711 189.855 15.1038C189.228 12.9277 189.095 10.6391 189.467 8.40519C189.467 8.40519 189.804 7.00625 189.834 6.89392C190.279 5.35957 191.092 3.95731 192.203 2.80942C193.12 1.93542 194.207 1.26022 195.396 0.826195C196.586 0.392169 197.852 0.208677 199.116 0.287232ZM198.687 17.2379H199.126C199.718 17.1342 200.267 16.8639 200.711 16.4588C201.154 16.0536 201.472 15.5304 201.628 14.9506C201.901 14.2624 202.063 13.5351 202.108 12.796C202.18 12.1119 202.915 5.15801 199.126 4.71892C196.216 4.38195 195.614 7.63935 195.491 8.0478C195.121 9.97778 195.087 11.9571 195.389 13.8989C195.547 14.7787 195.919 15.6063 196.471 16.3087C196.735 16.6371 197.074 16.8962 197.46 17.0635C197.847 17.2308 198.268 17.3012 198.687 17.2686V17.2379Z" fill="white"/>
<path fill-rule="evenodd" clip-rule="evenodd" d="M133.171 0.726177C136.582 1.05294 138.114 1.91069 139.094 2.96245C140.147 4.17422 140.682 5.75088 140.585 7.35329C140.578 8.22261 140.357 9.07688 139.942 9.84082C139.528 10.6048 138.931 11.2549 138.206 11.7339C137.723 12.0664 137.206 12.3471 136.664 12.5713C135.643 13.0001 135.367 12.8878 135.377 13.2044C135.387 13.5209 135.541 13.4903 135.949 13.9089C137.705 15.7061 140.646 19.1371 142.076 20.5565C142.178 20.6586 142.229 20.6586 142.168 20.7913C142.035 21.1079 141.933 20.9751 141.596 20.9547C140.942 20.9547 135.285 20.9547 135.122 20.9547C134.775 20.8526 134.601 20.536 133.774 19.5558C132.559 18.1364 129.342 14.0213 128.964 13.7864C128.75 13.6536 128.73 13.6741 124.032 13.6741C123.226 13.6741 122.899 13.5209 122.889 14.3276C122.889 17.7382 122.889 20.6075 122.889 20.7913C122.889 20.9751 122.593 20.9751 122.562 20.9853H117.804C117.211 20.9853 117.334 20.3012 117.334 19.9642C117.283 9.1709 117.334 9.1709 117.334 9.09942C117.436 8.83393 117.538 8.87477 121.051 8.88498C125.493 8.88498 125.493 8.88498 129.945 8.88498C130.169 8.88498 130.762 8.88498 132.753 8.77266C133.774 8.71139 134.039 8.60928 134.458 7.96597C134.576 7.80147 134.659 7.6147 134.702 7.41704C134.746 7.21938 134.748 7.01497 134.71 6.81625C134.672 6.61754 134.594 6.42869 134.48 6.2612C134.367 6.09371 134.22 5.95109 134.05 5.84202C133.029 5.2804 132.967 5.37231 120.183 5.33146C117.395 5.33146 117.354 5.33146 117.119 5.14766C116.885 4.96386 117.119 4.43287 116.629 1.9209C116.435 0.961037 116.527 0.899769 116.629 0.777234C116.731 0.654698 116.813 0.644487 119.693 0.644487C130.517 0.644487 130.506 0.58322 133.131 0.715966L133.171 0.726177Z" fill="#676766"/>
<path fill-rule="evenodd" clip-rule="evenodd" d="M179.592 7.24105C181.546 7.36048 183.397 8.16284 184.82 9.50795C187.883 12.5713 186.362 16.6558 185.841 17.5034C185.316 18.3195 184.656 19.041 183.89 19.6375C183.166 20.1225 182.388 20.5233 181.573 20.8323C179.9 21.4226 178.123 21.6557 176.355 21.5164C174.149 21.4309 172.027 20.644 170.299 19.2699C165.5 15.0425 165.959 4.81077 172.29 1.36957C173.878 0.56413 175.618 0.104714 177.396 0.021681C179.067 -0.0611362 180.741 0.0935749 182.369 0.481188C183.049 0.585299 183.712 0.781094 184.34 1.06323C185.3 1.43084 185.085 1.8495 184.34 3.46288C184.34 3.54457 184.289 3.53436 183.819 4.48401C183.441 5.2907 183.298 5.40302 182.798 5.20901C181.186 4.50173 179.427 4.19685 177.672 4.32063C176.719 4.39716 175.81 4.75228 175.058 5.34175C174.128 6.0157 173.383 7.90478 173.72 8.21112C174.057 8.51746 173.996 8.21112 174.813 7.87415C176.338 7.27804 177.981 7.04385 179.612 7.18999L179.592 7.24105ZM180.459 12.7858C180.265 12.5488 180.046 12.3331 179.806 12.1425C178.98 11.5801 177.982 11.327 176.988 11.4277C175.007 11.683 174.496 12.4488 174.374 12.5407C174.157 12.7366 173.982 12.974 173.859 13.2389C173.737 13.5039 173.668 13.7908 173.659 14.0826C173.659 17.2787 178.162 17.8097 180.051 16.0534C180.345 15.7763 180.57 15.4344 180.708 15.0551C180.846 14.6757 180.894 14.2693 180.848 13.8682C180.831 13.4764 180.695 13.0991 180.459 12.7858Z" fill="white"/>
<path fill-rule="evenodd" clip-rule="evenodd" d="M15.6906 13.6027C15.6906 13.664 16.1297 14.4196 16.1399 14.4196C16.2375 14.4403 16.3384 14.4403 16.436 14.4196C16.4973 14.4196 16.7934 13.5925 17.3039 12.7246C17.3754 12.5918 17.355 12.5816 18.2025 11.0091C20.6124 6.56716 23.3082 1.11434 23.5022 0.87948C23.6962 0.644621 23.7983 0.726311 26.6881 0.613987C28.0462 0.613987 29.3328 0.39955 29.0265 1.26751C28.6793 2.28864 26.8923 5.35202 25.9631 7.30237C25.9631 7.30237 25.9631 7.30237 25.6874 7.82315C25.524 8.1397 25.5547 8.16012 23.6451 11.9077C22.9406 13.2862 22.9406 13.2862 22.2564 14.6851C22.1951 14.8077 22.1849 14.8077 21.4497 16.227C21.0004 17.095 21.0209 17.1052 20.5818 17.9629C19.1726 20.72 19.1522 20.7302 18.9378 20.8834C18.7233 21.0365 18.7642 20.9753 13.4747 20.9753C12.7293 20.9753 12.4536 21.0365 12.1983 20.577C11.943 20.1175 11.9839 20.1277 10.687 17.9629C10.1458 17.0541 9.66592 16.2168 8.5631 14.4707C8.51204 14.389 8.5631 14.389 7.97084 13.4496C6.43915 10.958 2.96732 5.6073 0.771897 2.04357C0.679996 1.84955 0.189854 1.17561 0.138798 1.10413C-0.126695 0.746734 -0.00415978 0.583353 0.445136 0.573142C0.894432 0.562931 0.996545 0.573142 7.3888 0.573142C8.15465 0.573142 8.18528 0.644621 8.59373 1.28793C9.1043 2.09462 14.9554 12.3263 15.7416 13.5415L15.6906 13.6027Z" fill="#676766"/>
<path fill-rule="evenodd" clip-rule="evenodd" d="M164.163 13.8578C164.347 14.8892 164.234 15.9518 163.836 16.9212C162.315 20.4747 158.73 21.0057 157.709 21.2099C156.856 21.3891 155.987 21.4815 155.116 21.4856C153.209 21.5698 151.301 21.3597 149.459 20.8627C147.894 20.4283 146.394 19.7897 144.996 18.9634C144.901 18.9023 144.832 18.8073 144.803 18.6974C144.775 18.5875 144.789 18.471 144.843 18.3712C144.955 18.1772 144.976 18.1465 146.487 16.0532C147.182 15.1036 147.294 14.7972 147.733 14.981C147.845 14.981 147.835 15.0321 149.101 15.706L149.53 15.9205C149.765 16.0022 149.918 16.043 150.551 16.2881C151.957 16.7331 153.427 16.9469 154.901 16.9212C157.352 16.7578 158.077 16.1758 158.271 15.1444C158.659 13.0103 155.933 12.755 155.779 12.7346C154.989 12.5683 154.187 12.4625 153.38 12.418C151.869 12.3465 151.869 12.418 150.316 12.3057C150.122 12.3057 149.857 12.3057 149.806 11.9177C149.806 11.8155 149.806 9.94688 149.806 9.73245C149.857 9.11977 150.265 9.06871 151.327 8.17012C151.44 8.07822 152.348 7.29195 152.736 7.01625C152.879 6.90392 153.655 6.31167 154.411 5.62752C154.963 5.13738 155.034 5.1578 155.024 4.96378C155.014 4.76977 154.891 4.77998 154.615 4.79019C154.108 4.81563 153.601 4.81563 153.094 4.79019C146.007 4.79019 145.946 4.92294 145.732 4.71871C145.67 4.65744 145.67 4.55533 145.609 4.49406V4.39195C145.609 3.05428 145.609 2.99301 145.609 1.54301C145.609 0.950753 145.517 0.705683 146.12 0.675049C146.232 0.675049 153.502 0.675049 154.135 0.675049C162.539 0.675049 162.56 0.675049 162.764 0.756739C162.968 0.838429 163.029 0.920119 162.938 2.79899C162.886 4.13667 162.601 4.15709 161.702 4.93315C160.803 5.70921 158.822 7.22047 158.639 7.3328C157.526 8.23139 157.454 8.1497 157.393 8.25181C157.332 8.35393 157.229 8.48667 157.393 8.61942C157.556 8.75216 158.026 8.70111 158.21 8.74195C162.192 9.64055 163.315 11.693 163.642 12.3567C163.895 12.8216 164.035 13.3392 164.051 13.868L164.163 13.8578Z" fill="white"/>
<path fill-rule="evenodd" clip-rule="evenodd" d="M34.9285 20.9446C34.5609 20.9446 31.426 21.0672 30.3845 20.9446C29.8331 20.8936 29.9556 20.3013 29.9556 19.9235C29.9556 12.3978 29.8433 1.27771 30.0067 0.859045C30.119 0.593552 30.2211 0.634397 33.6317 0.624186C35.3165 0.624186 35.6025 0.511862 35.6739 1.04285C35.6739 1.29813 35.6739 2.19672 35.6739 17.5341C35.7336 18.5543 35.7336 19.5772 35.6739 20.5974C35.5616 20.965 34.9898 20.9242 34.9489 20.9344L34.9285 20.9446Z" fill="#676766"/>
<path fill-rule="evenodd" clip-rule="evenodd" d="M72.3967 32.5826C72.5026 32.5826 72.7221 32.4833 72.9719 33.0255C73.2217 33.5678 73.1763 33.5754 73.4337 34.1024C73.4337 34.1711 73.9635 35.3625 74.1906 35.8895C74.2512 36.0041 75.0535 37.8294 75.379 38.532C75.6061 39.0131 77.0443 42.4346 77.2941 42.9234C77.2941 42.9998 78.0511 44.6876 78.2025 44.9855C78.263 45.1459 78.3387 45.4208 78.4447 45.6652C78.4447 45.7263 78.7777 46.4289 78.7929 46.4289C78.914 46.7879 78.6945 46.7421 78.316 46.7344C76.4236 46.6886 76.189 46.8719 76.0452 46.4519C76.0452 46.3755 75.8635 45.9096 75.7272 45.6347C75.3336 44.8709 75.0687 43.9163 74.8189 43.817C74.6826 43.7635 73.6229 43.817 69.1872 43.817C68.2486 43.817 68.1426 43.7559 67.9382 44.1912C67.6847 44.9783 67.3392 45.7321 66.9088 46.4366C66.7877 46.5588 66.7498 46.8872 64.3654 46.7574C64.3654 46.7574 64.0248 46.7574 64.0853 46.4671C64.1459 46.1769 64.1913 46.3373 64.9028 44.5349C64.9634 44.3898 64.9861 44.4051 65.6598 42.7478C65.7279 42.595 65.7355 42.6027 66.5 40.8232C66.5 40.7544 66.5 40.7544 66.8861 39.9678C69.6792 33.6441 69.9139 32.7582 70.1107 32.6513C70.8626 32.5421 71.6244 32.5191 72.3815 32.5826H72.3967ZM69.77 39.7845C69.7322 39.8762 69.77 39.8762 69.2932 40.9225C69.2395 41.0338 69.2013 41.152 69.1796 41.2738C69.1796 41.4647 69.4673 41.4724 69.4975 41.4724C69.7927 41.4724 69.7927 41.4724 73.199 41.4724H73.7213C73.9333 41.4113 73.8424 41.1745 73.8349 41.144C73.8273 41.1134 73.8349 41.0905 73.4942 40.3802C73.4488 40.2733 73.4185 40.2809 72.9114 39.0513C72.3134 37.6079 71.7911 36.6303 71.6548 36.279C71.6019 36.1415 71.6019 36.1186 71.458 36.1186C71.3142 36.1186 71.3294 36.1874 71.2082 36.4852C71.0871 36.7831 71.0871 36.722 69.9441 39.5401C69.902 39.6521 69.854 39.7617 69.8003 39.8685L69.77 39.7845Z" fill="white"/>
<path fill-rule="evenodd" clip-rule="evenodd" d="M142.006 37.1032C141.945 37.1032 141.953 37.149 141.892 37.1719C141.854 37.1819 141.815 37.1819 141.778 37.1719C141.778 37.1719 141.778 37.4313 141.778 37.9348C141.778 40.8568 141.778 40.8491 141.778 43.7711C141.778 46.3193 141.778 46.3574 141.671 46.449C141.473 46.4881 141.271 46.506 141.069 46.5024C140.543 46.5548 140.013 46.5394 139.491 46.4566C139.392 46.4032 139.331 46.365 139.362 45.0681C139.362 43.9695 139.362 43.9695 139.362 40.8491C139.362 40.8034 139.362 40.8034 139.362 40.2083C139.362 33.9142 139.293 32.5791 139.43 32.4113C139.568 32.2434 139.552 32.2968 141.061 32.3197C141.541 32.3197 141.526 32.541 141.991 33.0826C142.22 33.3573 143.698 35.2722 143.843 35.4629C146.19 38.5146 146.243 38.4459 148.148 41.017C148.331 41.2535 148.674 41.8943 148.712 41.8943C148.751 41.8943 148.804 41.8409 148.85 41.818C148.895 41.7952 148.911 41.818 148.918 41.818C148.926 41.818 148.918 41.7418 148.918 41.696C148.786 40.6154 148.75 39.5252 148.811 38.4383C148.811 32.5638 148.811 32.541 148.865 32.4418C148.918 32.3426 149.193 32.335 150.48 32.335C151.014 32.335 151.242 32.2358 151.242 32.7698C151.242 32.8461 151.242 32.8461 151.296 44.4349C151.296 46.2811 151.296 46.3116 151.182 46.4337C151.067 46.5558 151.067 46.5329 149.657 46.5024C149.193 46.5024 149.208 46.3498 148.56 45.5411C148.491 45.4572 147.966 44.7782 147.92 44.7248C146.845 43.3668 146.868 43.3515 145.786 41.9935L144.262 40.0786C143.431 39.115 142.667 38.0954 141.976 37.0269L142.006 37.1032Z" fill="#676766"/>
<path fill-rule="evenodd" clip-rule="evenodd" d="M132.706 32.5647H133.183C133.453 32.6488 133.422 32.71 133.43 32.9777C133.43 34.6373 133.43 34.6525 133.353 34.7596C133.276 34.8667 133.199 34.8284 128.776 34.8514H127.466C127.029 34.8146 126.589 34.8326 126.156 34.9049C126.002 35.0273 126.033 35.1114 126.041 37.1993C126.041 37.3446 126.041 38.117 126.041 38.1553C126.141 38.4153 126.195 38.3771 126.472 38.3771C131.92 38.3771 131.943 38.3312 132.082 38.423C132.22 38.5147 132.243 38.6142 132.236 40.1208C132.236 40.442 132.236 40.5491 132.074 40.6714C131.912 40.7938 131.897 40.6714 126.634 40.7403C126.318 40.7403 126.203 40.7403 126.072 40.8856C125.941 41.0309 126.018 40.9697 126.025 43.8606C126.025 44.3042 126.025 44.4418 126.472 44.4418C130.094 44.4877 133.191 44.4418 133.353 44.4877C133.515 44.5336 133.507 44.8625 133.484 46.132C133.484 46.6062 133.484 46.7515 133.022 46.7668C132.297 46.7668 130.571 46.8127 124.014 46.7668C123.833 46.767 123.652 46.7465 123.475 46.7056C123.29 46.568 123.329 46.5374 123.329 46.3003C123.329 46.2162 123.329 33.0465 123.329 32.9777C123.329 32.4958 123.513 32.5494 123.999 32.5494H132.675L132.706 32.5647Z" fill="#676766"/>
<path fill-rule="evenodd" clip-rule="evenodd" d="M95.1626 32.5747C100.216 32.5747 100.263 32.5747 100.363 32.7025C100.464 32.8304 100.448 32.8229 100.417 34.417C100.417 34.9433 100.069 34.8305 99.4345 34.8305C93.104 34.8305 93.104 34.8305 93.0111 34.8305C92.9183 34.8305 92.7945 35.1614 92.7945 35.1915C92.7945 35.5298 92.7945 36.7405 92.7945 37.7556C92.7945 38.3045 92.9725 38.2669 93.5684 38.2819C95.6966 38.2819 98.7612 38.2819 98.8231 38.2819C99.1094 38.3571 99.0785 38.4248 99.094 38.7105C99.1094 38.9963 99.094 40.0339 99.094 40.1467C99.094 40.6881 98.8773 40.6054 98.3201 40.6129C96.5294 40.5531 94.7367 40.5833 92.9492 40.7032C92.8332 40.7784 92.8254 41.0716 92.8254 41.1017C92.8254 42.4627 92.8254 42.4627 92.8254 43.8237C92.8254 44.3425 93.0344 44.2523 93.5993 44.2523H99.8446C100.278 44.2523 100.417 44.2072 100.441 44.6208V46.2149C100.441 46.6134 100.069 46.5307 99.0243 46.5157C96.2538 46.5157 90.643 46.5157 90.5115 46.5157C90.2174 46.4705 90.2638 46.3051 90.287 44.7937C90.3412 40.1618 90.287 40.1618 90.287 33.4545C90.287 33.2139 90.287 33.2139 90.287 32.9732C90.287 32.4544 90.496 32.5522 91.0609 32.5597C92.9105 32.5597 93.3826 32.5597 95.3406 32.5597L95.1626 32.5747Z" fill="#676766"/>
<path fill-rule="evenodd" clip-rule="evenodd" d="M38.2273 32.5482C39.2809 32.5482 39.3963 32.5482 39.5424 32.5482C39.9884 32.5938 39.8808 32.8522 39.8654 33.4374C39.8654 34.7902 40.0576 40.8855 39.7269 42.322C39.5906 43.1045 39.2692 43.844 38.7887 44.4804C38.4793 44.9307 38.0851 45.3177 37.6274 45.6204C37.0689 46.0274 36.4334 46.3195 35.7586 46.4793C34.4366 46.8334 33.05 46.8828 31.7056 46.6237C31.1474 46.4605 30.6065 46.2441 30.0906 45.9776C27.0143 44.2068 27.2066 41.1591 27.2143 39.5783C27.2143 32.7382 27.1758 32.7382 27.2758 32.6394C27.3758 32.5406 27.4219 32.533 29.4061 32.5634C29.6907 32.5634 29.7522 32.5634 29.8291 32.8066C29.8753 32.951 29.7676 39.3731 29.8983 40.5511C30.0521 41.9116 30.2598 42.93 31.1288 43.69C32.4055 44.8072 34.6204 44.45 35.3048 44.1384C35.7611 43.9868 36.1498 43.6832 36.4046 43.2796C36.6784 43.0049 36.8947 42.6797 37.0412 42.3223C37.1876 41.965 37.2614 41.5827 37.2583 41.1971C37.512 39.6315 37.3121 32.9662 37.3505 32.7838C37.389 32.6014 37.9273 32.5558 38.2273 32.5558V32.5482Z" fill="white"/>
<path fill-rule="evenodd" clip-rule="evenodd" d="M54.5684 42.2752C54.4223 41.9425 54.3454 41.5016 52.8305 40.9755C52.4646 40.821 52.0897 40.6892 51.7077 40.5809C51.6155 40.5809 51.6231 40.5423 50.5773 40.2019C49.6057 39.9507 48.7121 39.4586 47.9781 38.7707C47.6525 38.4655 47.4046 38.0861 47.2552 37.6644C47.0563 37.1394 46.9749 36.5768 47.0168 36.0165C47.13 34.9472 47.6578 33.9659 48.4856 33.2856C49.6295 32.3848 51.0666 31.9461 52.5152 32.0555C54.1007 32.0914 55.6377 32.6122 56.9216 33.5486C57.2984 33.8039 57.1369 34.0283 56.5217 34.9721C56.5217 35.0185 56.5217 34.9721 56.1218 35.5291C55.9142 35.8231 55.5912 35.4827 55.299 35.3357C54.1716 34.6397 52.8452 34.3428 51.5309 34.4925C49.2931 34.771 49.7545 36.6973 50.2313 36.9913C52.4844 38.3606 56.9139 38.7397 57.3522 41.6331C57.5415 42.3951 57.4957 43.197 57.221 43.9322C56.9463 44.6673 56.4556 45.301 55.8142 45.7488C54.9305 46.3281 53.9137 46.6691 52.8612 46.739C51.0041 46.9267 49.1329 46.5636 47.4782 45.6946C46.963 45.4084 46.0018 44.7353 46.0248 44.3949C46.2985 43.9248 46.6124 43.4796 46.963 43.0643C47.2552 42.6388 47.3475 42.4763 47.732 42.8013C48.0165 43.0334 50.1851 44.8436 52.6613 44.48C53.3107 44.4121 53.9074 44.0898 54.3223 43.5826C54.519 43.3569 54.633 43.0702 54.6453 42.7703C54.646 42.6098 54.62 42.4503 54.5684 42.2984V42.2752Z" fill="white"/>
<path fill-rule="evenodd" clip-rule="evenodd" d="M175.581 32.0513C176.606 31.9877 177.631 32.1731 178.567 32.5915C179.125 32.8446 179.666 33.136 180.184 33.4636C180.503 33.6797 180.409 33.7723 180.184 34.081C179.36 35.2464 179.406 35.2541 179.305 35.3545C179.049 35.7018 178.862 35.4625 178.528 35.2541C177.682 34.7289 176.723 34.409 175.729 34.3203C173.723 34.274 172.402 35.8638 173.972 37.1373C175.107 38.0557 178.497 38.3412 179.935 40.0932C180.507 40.7994 180.81 41.6829 180.792 42.5888C180.773 43.4947 180.434 44.3653 179.834 45.048C178.147 46.9465 175.706 46.8076 174.742 46.769C173.095 46.6207 171.529 45.9924 170.24 44.9631C169.891 44.6852 169.743 44.6466 169.96 44.2607C169.96 44.2607 170.388 43.6356 170.427 43.5816C170.886 42.9873 170.971 42.6555 171.29 42.7403C171.693 43.0726 172.128 43.3647 172.588 43.6125C173.354 44.0406 174.196 44.3184 175.068 44.4305C175.73 44.547 176.412 44.4664 177.027 44.199C177.494 43.9443 177.471 43.9134 177.805 43.4813C179.165 41.629 175.931 40.7337 175.403 40.5485C174.308 40.2434 173.261 39.7889 172.293 39.1979C171.871 38.9148 171.515 38.5463 171.247 38.1167C170.979 37.6871 170.805 37.206 170.738 36.7051C170.625 35.9899 170.725 35.2576 171.026 34.5981C171.609 33.2089 173.28 32.1284 175.62 32.0513H175.581Z" fill="#676766"/>
<path fill-rule="evenodd" clip-rule="evenodd" d="M111.424 42.8891L111.555 42.9502C111.555 42.9502 111.625 43.0113 111.671 43.0037C111.718 42.996 111.749 42.7287 111.888 42.4156C112.027 42.1024 114.979 34.648 115.435 33.4718C115.721 32.708 115.737 32.6393 115.999 32.5934C116.046 32.5934 117.545 32.5934 117.8 32.5934C118.318 32.5934 118.642 32.5323 118.426 33.0059C117.908 34.1057 117.514 35.3583 117.112 36.2443C116.888 36.7484 116.919 36.756 116.71 37.2601C116.71 37.3517 116.71 37.3517 116.239 38.4057C116.18 38.6171 116.105 38.8239 116.015 39.0244C115.196 41.0255 115.141 41.1324 115.064 41.3157C114.886 41.7129 114.925 41.7282 114.74 42.1253C114.454 42.7287 112.993 46.5399 112.885 46.6469C112.776 46.7538 112.568 46.7996 111.068 46.7843C110.504 46.7843 110.427 46.7843 110.226 46.3261C110.092 45.9365 109.937 45.5541 109.762 45.1804C109.708 45.0658 109.708 45.0658 109.152 43.7063C109.105 43.5994 108.711 42.6447 108.611 42.4232C108.294 41.7434 105.79 35.4118 104.7 33.1663C104.592 32.9448 104.267 32.5476 104.831 32.5476C107.15 32.5476 107.196 32.6087 107.382 32.8989C107.799 33.5405 111.007 41.5754 111.308 42.5607C111.308 42.5607 111.308 42.5607 111.424 42.8967V42.8891Z" fill="#676766"/>
<path fill-rule="evenodd" clip-rule="evenodd" d="M162.761 42.5607C162.761 45.773 162.761 45.773 162.761 46.074C162.761 46.6006 162.553 46.5178 161.991 46.5178C160.388 46.5178 160.203 46.6307 160.149 46.2395C160.149 46.1567 160.149 35.1054 160.149 35.0603C160.072 34.797 160.01 34.8196 159.725 34.8196C156.189 34.8196 155.989 34.9775 155.873 34.5863C155.873 34.5186 155.873 33.2322 155.873 33.1344C155.873 32.7056 155.834 32.5702 156.274 32.5476C156.982 32.5476 165.758 32.5476 166.583 32.5476C166.929 32.5476 167.053 32.5476 167.06 32.9689C167.06 34.5713 167.06 34.5788 167.014 34.6917C166.968 34.8045 166.036 34.7669 164.287 34.8196C163.799 34.7784 163.308 34.8088 162.83 34.9098C162.73 35.0001 162.746 35.0302 162.738 39.8449C162.738 41.1991 162.738 41.1991 162.738 42.5607H162.761Z" fill="#676766"/>
</svg>
