<svg width="155" height="29" viewBox="0 0 155 29" fill="none" xmlns="http://www.w3.org/2000/svg">
<path d="M40.2277 0L41.092 0.020375L41.1124 28.2595L1.04179 28.2567L0 28.255L0.0320247 0.0181476C8.67743 0.114554 17.3535 -0.027977 26.0021 0.0339625C30.7303 0.0678214 35.5001 0.0589997 40.2277 0Z" fill="white"/>
<path d="M26.6471 6.17185C28.0183 6.03916 29.3965 6.34171 30.5865 7.03611C38.6089 11.6821 31.8497 24.3499 23.7096 19.2617C23.3144 18.9581 22.928 18.5934 22.5562 18.2568C22.6715 19.9558 22.5531 21.718 22.6519 23.4248C22.6894 24.0742 22.7425 24.4709 22.0933 24.7627C21.7777 24.7575 21.7466 24.7731 21.5113 24.5888C21.4134 24.0224 21.4342 23.4019 21.4381 22.8252C21.4671 18.5504 21.3904 14.2689 21.4889 9.99607C21.4948 9.73736 21.5624 9.53251 21.6949 9.30857C22.8645 7.33284 24.3395 6.43238 26.6471 6.17185ZM27.0318 7.29002C25.5859 7.42281 24.4014 7.77623 23.4254 8.93455C23.066 9.35357 22.8086 9.85045 22.6734 10.3857C22.456 11.2822 22.5559 15.5417 22.6314 16.5986C24.1669 18.8009 25.9509 19.6046 28.6383 19.1377C34.0926 17.2798 34.4412 10.0126 29.6617 7.79197C28.8372 7.41889 27.9358 7.24718 27.0318 7.29002Z" fill="black"/>
<path d="M11.6626 6.16983C13.6562 5.91204 15.6692 6.47234 17.2432 7.72309C17.0498 8.00693 16.8087 8.31927 16.603 8.60017C14.5899 7.05787 10.589 6.5878 8.93339 8.42409C6.14723 11.5144 11.4861 12.4181 13.1898 12.6993C15.2114 13.0331 17.999 13.9517 18.1037 16.231C18.252 19.4556 15.0954 20.2762 12.4607 20.3509C10.2102 20.32 8.60393 19.8924 6.72852 18.6497L7.3318 17.7072C9.68159 19.2314 13.997 20.184 16.4321 17.936C17.3057 17.1296 17.097 15.6156 15.9714 14.8806C13.432 13.2225 8.03521 14.2019 7.14979 10.5578C6.6891 7.70271 9.23995 6.48592 11.6626 6.16983Z" fill="black"/>
<path d="M49.5165 0.556641L51.3367 0.557352L51.3374 13.8608L74.0889 13.8493C74.1835 9.54304 74.1012 4.90012 74.1158 0.569925L75.863 0.55786L75.874 26.6379L75.8616 27.556L74.0782 27.5947C74.1873 23.7051 74.1008 19.5094 74.121 15.5844C66.5453 15.5121 58.9225 15.6787 51.3506 15.5586L51.3293 27.6188L49.5146 27.6197L49.5165 0.556641Z" fill="white"/>
<path d="M131.481 0.540527L133.113 0.540831L133.142 2.37763L133.133 10.4162C133.129 15.8375 133.453 19.9539 129.321 24.3638C127.113 26.7213 123.956 28.1311 120.703 28.1421C117.387 28.1312 114.213 26.7909 111.892 24.4211C107.522 20.0199 107.974 15.2088 107.973 9.64056L107.977 0.566273L109.67 0.557456L109.663 10.1801C109.658 15.0779 109.262 19.3467 113.057 23.2043C115.029 25.2304 117.724 26.391 120.55 26.4314C123.389 26.4439 125.95 25.3436 127.945 23.3323C129.39 21.8899 130.429 20.0917 130.956 18.1192C131.665 15.4932 131.483 11.8592 131.481 9.05716V0.540527Z" fill="white"/>
<path d="M93.2558 0.140413L94.4435 0.139404C97.9509 7.04906 101.109 14.1957 104.512 21.1607C105.473 23.1274 106.44 25.1016 107.354 27.0897C106.814 27.376 106.294 27.5954 105.735 27.8371L97.8668 11.1488C96.5939 8.46565 95.2795 5.56068 93.9348 2.92739L93.8577 2.84832C93.5486 3.04184 82.769 25.9685 81.7526 27.8787C81.2408 27.6298 80.7098 27.331 80.2051 27.0586C81.3746 24.848 82.469 22.3257 83.5818 20.0683C86.8308 13.4772 89.8831 6.66048 93.2558 0.140413Z" fill="white"/>
<path d="M154.361 0.0717773L154.586 0.119222C154.802 0.555435 154.903 1.23464 155 1.7329C150.385 3.08107 148.517 7.49053 146.584 11.4861L143.814 17.2808C141.826 21.3878 139.603 26.5564 135.057 28.1351L134.858 28.088C134.653 27.7259 134.523 26.9314 134.429 26.4875C142.536 23.9845 144.667 2.35938 154.361 0.0717773Z" fill="white"/>
</svg>
