<svg width="186" height="87" viewBox="0 0 186 87" fill="none" xmlns="http://www.w3.org/2000/svg">
<path d="M23.0133 64.3327L0 0H14.0904L30.3358 47.6167L46.1208 0H59.8974L36.8841 64.3327H23.0133Z" fill="white"/>
<path d="M63.1089 64.3327V0H76.0905V64.3327H63.1089Z" fill="white"/>
<path d="M118.717 0H104.982L79.9293 64.3327H93.7059L99.0199 49.7192L103.005 38.8821L111.698 15.011L120.558 38.8821L124.732 49.7192L130.349 64.3327H144.482L118.717 0Z" fill="white"/>
<path d="M184.672 0.167236V13.766C184.712 15.7731 184.6 17.7803 184.337 19.7704C184.134 21.0407 183.656 22.2512 182.935 23.3166C182.199 24.3874 181.23 25.2778 180.1 25.9212C178.894 26.6213 177.52 26.9827 176.125 26.9673C174.573 26.9781 173.052 26.5305 171.753 25.6806C170.437 24.8358 169.398 23.6251 168.761 22.1973C168.282 24.0793 167.202 25.7539 165.686 26.9673C164.216 28.081 162.414 28.6669 160.57 28.6305C159.007 28.638 157.463 28.2798 156.062 27.5845C154.666 26.9183 153.463 25.9065 152.568 24.6451C151.645 23.2746 151.09 21.6895 150.957 20.0424C150.832 18.9057 150.755 16.151 150.727 11.7785V0.167236H184.672ZM165.518 7.02939H156.449V13.3685C156.4 14.9404 156.466 16.5137 156.648 18.0758C156.805 19.0359 157.285 19.9138 158.008 20.5654C158.815 21.2372 159.846 21.5808 160.895 21.5278C161.815 21.5543 162.722 21.2948 163.489 20.7851C164.218 20.2512 164.76 19.5007 165.037 18.6407C165.463 16.6445 165.624 14.6012 165.518 12.5631V7.02939ZM179.023 7.02939H171.167V11.5065C171.167 14.1844 171.167 15.8372 171.292 16.4858C171.37 17.521 171.798 18.4988 172.506 19.2578C172.852 19.604 173.265 19.8754 173.721 20.0553C174.176 20.2353 174.663 20.3199 175.152 20.3039C176.085 20.344 176.999 20.0344 177.715 19.4357C178.42 18.7424 178.835 17.8078 178.876 16.8205C178.95 16.1406 178.991 14.1949 178.991 10.9626L179.023 7.02939Z" fill="white"/>
<path d="M150.727 34.4258H184.672V48.851C184.796 51.5188 184.489 54.1893 183.762 56.7592C183.144 58.3897 181.999 59.7668 180.508 60.6714C178.905 61.6758 177.044 62.1919 175.152 62.1568C172.851 62.2302 170.607 61.4263 168.876 59.9078C167.066 58.1125 165.954 55.7321 165.738 53.1921C164.974 54.5484 164.015 55.7855 162.893 56.8638C161.172 58.3219 159.327 59.6274 157.38 60.7656L150.758 64.9498V56.7487L158.143 51.7904C159.882 50.6944 161.548 49.489 163.133 48.1815C163.77 47.6116 164.255 46.8927 164.545 46.0894C164.85 44.9688 164.981 43.8081 164.932 42.6478V41.2775H150.727V34.4258ZM170.32 41.2775V46.3509C170.217 48.41 170.354 50.4741 170.728 52.5017C170.987 53.2749 171.494 53.9407 172.171 54.3951C172.928 54.881 173.814 55.1254 174.713 55.0959C175.719 55.1397 176.705 54.8121 177.485 54.1754C178.222 53.5005 178.694 52.5839 178.814 51.5916C178.887 51.0372 178.929 49.374 178.929 46.5915V41.2775H170.32Z" fill="white"/>
<path d="M73.3497 81.5088L75.1593 81.9586C74.8794 83.2854 74.1609 84.4793 73.1195 85.3478C72.0897 86.1467 70.8133 86.561 69.5106 86.5194C68.2458 86.5765 66.9918 86.2639 65.9017 85.6198C64.9539 84.9911 64.2232 84.0851 63.8096 83.0256C63.3238 81.8666 63.0783 80.621 63.0878 79.3644C63.0603 78.0804 63.3363 76.808 63.8933 75.6508C64.4039 74.6185 65.2227 73.7705 66.2364 73.224C67.2503 72.6724 68.3879 72.388 69.542 72.3976C70.7727 72.3604 71.9817 72.7279 72.9835 73.4436C73.9383 74.1733 74.6229 75.2002 74.9292 76.3622L73.1509 76.7806C72.929 75.9319 72.446 75.1744 71.7701 74.6152C71.109 74.1447 70.3111 73.9056 69.5002 73.9353C68.5673 73.9017 67.6478 74.1655 66.8745 74.6885C66.1773 75.1863 65.6569 75.8935 65.3891 76.7074C65.1062 77.5503 64.9614 78.4334 64.9603 79.3225C64.9423 80.3601 65.1161 81.3921 65.4728 82.3665C65.7623 83.1734 66.3199 83.8565 67.0524 84.3018C67.7491 84.7242 68.5494 84.9451 69.3642 84.9398C70.2955 84.9711 71.2064 84.6625 71.927 84.0716C72.6767 83.4022 73.178 82.499 73.3497 81.5088Z" fill="white"/>
<path d="M76.5507 86.2892V72.6904H86.415V74.27H78.3603V78.4542H85.9024V80.0547H78.3603V84.7306H86.7288V86.3415L76.5507 86.2892Z" fill="white"/>
<path d="M88.7791 86.2891V72.6903H90.6306L97.7961 83.3915V72.6589H99.5221V86.2577H97.6706L90.5155 75.5774V86.2891H88.7791Z" fill="white"/>
<path d="M101.07 79.6468C100.955 77.735 101.539 75.8464 102.713 74.3328C103.22 73.7181 103.86 73.2258 104.585 72.8925C105.309 72.5593 106.1 72.3937 106.897 72.4081C107.984 72.3958 109.049 72.7131 109.951 73.3182C110.88 73.9311 111.608 74.8043 112.043 75.8287C112.532 76.9866 112.774 78.2334 112.755 79.4899C112.776 80.7677 112.519 82.0348 112.002 83.2034C111.572 84.223 110.842 85.0877 109.91 85.6826C109.016 86.2309 107.987 86.5206 106.939 86.5194C105.821 86.5414 104.725 86.2161 103.801 85.5884C102.874 84.959 102.148 84.0767 101.708 83.0465C101.266 81.9688 101.048 80.8118 101.07 79.6468ZM102.744 79.6468C102.664 81.0415 103.087 82.4185 103.936 83.5277C104.301 83.9702 104.758 84.3266 105.276 84.5713C105.794 84.816 106.36 84.9429 106.933 84.9429C107.507 84.9429 108.072 84.816 108.591 84.5713C109.109 84.3266 109.566 83.9702 109.93 83.5277C110.775 82.3607 111.192 80.9387 111.112 79.5004C111.135 78.5067 110.961 77.5183 110.6 76.5923C110.306 75.8207 109.794 75.1517 109.125 74.6676C108.485 74.2176 107.721 73.9798 106.939 73.9876C106.379 73.9858 105.826 74.1033 105.315 74.3324C104.805 74.5615 104.349 74.8969 103.978 75.3161C103.152 76.1634 102.744 77.6279 102.744 79.6782V79.6468Z" fill="white"/>
<path d="M120.506 80.944V79.3435H126.281V84.396C125.457 85.0704 124.532 85.6105 123.54 85.9964C122.611 86.3485 121.625 86.5293 120.632 86.5299C119.363 86.548 118.109 86.2534 116.981 85.6722C115.915 85.1211 115.048 84.2506 114.502 83.1825C113.936 82.0533 113.649 80.8051 113.665 79.5423C113.659 78.257 113.945 76.9871 114.502 75.8287C114.994 74.7221 115.836 73.8073 116.897 73.224C118.009 72.6503 119.245 72.3626 120.496 72.3872C121.407 72.3774 122.313 72.5407 123.163 72.8684C123.897 73.1418 124.547 73.6036 125.046 74.2073C125.55 74.8666 125.907 75.6264 126.092 76.4355L124.471 76.8853C124.316 76.2968 124.057 75.7406 123.707 75.2429C123.362 74.8168 122.911 74.4886 122.4 74.291C121.806 74.046 121.169 73.925 120.527 73.9354C119.812 73.9256 119.102 74.0534 118.435 74.3119C117.876 74.5432 117.378 74.9013 116.981 75.358C116.625 75.7552 116.335 76.2073 116.123 76.697C115.77 77.5709 115.593 78.5057 115.6 79.4481C115.565 80.4982 115.781 81.5415 116.228 82.4921C116.617 83.2895 117.261 83.9339 118.058 84.3227C118.85 84.7108 119.719 84.9112 120.6 84.9085C121.386 84.9099 122.164 84.7571 122.891 84.4587C123.472 84.2207 124.009 83.8885 124.481 83.4754V80.944H120.506Z" fill="white"/>
<path d="M128.665 86.2893V72.6905H134.712C135.65 72.6474 136.589 72.7713 137.484 73.0566C138.123 73.3026 138.658 73.7605 139 74.3537C139.385 74.9826 139.581 75.7088 139.565 76.4459C139.578 76.8958 139.501 77.3438 139.339 77.7639C139.178 78.184 138.935 78.5679 138.624 78.8936C137.831 79.6334 136.808 80.08 135.726 80.1594C136.104 80.3383 136.456 80.5669 136.772 80.8393C137.344 81.3784 137.846 81.9863 138.268 82.649L140.643 86.3625H138.373L136.563 83.5277C136.04 82.7013 135.601 82.0841 135.266 81.6448C135.006 81.2971 134.696 80.9903 134.346 80.7347C134.095 80.5698 133.819 80.4462 133.53 80.3686C133.184 80.3155 132.833 80.2945 132.484 80.3058H130.391V86.3625L128.665 86.2893ZM130.475 78.674H134.346C135.001 78.7011 135.656 78.6126 136.281 78.4124C136.712 78.2675 137.081 77.9797 137.327 77.5965C137.57 77.2349 137.697 76.8082 137.693 76.3726C137.697 76.0729 137.636 75.7757 137.515 75.5014C137.394 75.2271 137.216 74.982 136.992 74.7826C136.352 74.3144 135.564 74.095 134.774 74.1654H130.465L130.475 78.674Z" fill="white"/>
<path d="M142.766 86.3102L147.997 72.7114H149.942L155.518 86.3102H153.426L151.836 82.126H146.135L144.639 86.3102H142.766ZM146.7 80.7138H151.323L149.9 76.9375C149.472 75.7868 149.147 74.8454 148.938 74.1131C148.757 74.9979 148.513 75.8685 148.206 76.7178L146.7 80.7138Z" fill="white"/>
<path d="M157.568 86.2892V72.6904H166.763V74.27H159.367V78.4542H165.769V80.0652H159.367V86.2578L157.568 86.2892Z" fill="white"/>
<path d="M168.928 86.2892V72.6904H170.738V86.2892H168.928Z" fill="white"/>
<path d="M173.248 86.2892L178.479 72.6904H180.424L186 86.2892H183.908L182.318 82.1573H176.617L175.121 86.2892H173.248ZM177.182 80.6928H181.805L180.383 76.9165C179.954 75.7658 179.629 74.8244 179.42 74.0817C179.243 74.9686 178.995 75.8396 178.677 76.6864L177.182 80.6928Z" fill="white"/>
</svg>
