<svg width="312" height="80" viewBox="0 0 312 80" fill="none" xmlns="http://www.w3.org/2000/svg">
<path d="M66.851 13.9935V0.249756H76.4473V1.36592H68.6064V6.54691H76.1699V7.66308H68.6064V12.8774H76.4473V13.9935H66.851Z" fill="#ACA9A9"/>
<path d="M101.81 14.2602C100.825 14.2602 99.9586 14.1547 99.2119 13.9437C98.4652 13.7271 97.8301 13.4689 97.3066 13.169C96.791 12.8636 96.3751 12.5665 96.0593 12.2778C95.7514 11.989 95.5362 11.7725 95.4127 11.6281L96.4174 10.6951C96.5559 10.8507 96.7641 11.0617 97.0411 11.3282C97.326 11.5892 97.6876 11.8558 98.1265 12.1278C98.5653 12.3944 99.0928 12.6221 99.7085 12.8109C100.324 12.9941 101.036 13.0857 101.845 13.0857C102.615 13.0857 103.315 12.9858 103.947 12.7859C104.586 12.586 105.097 12.2889 105.482 11.8946C105.867 11.5003 106.06 11.0117 106.06 10.4286C106.06 9.93994 105.925 9.52623 105.656 9.18751C105.394 8.8432 105.028 8.55169 104.559 8.31292C104.089 8.07411 103.55 7.86312 102.942 7.67987C102.342 7.49104 101.71 7.30778 101.048 7.13011C100.586 7.00238 100.101 6.85244 99.593 6.68031C99.0928 6.5026 98.6231 6.28326 98.1842 6.02229C97.7454 5.75574 97.3873 5.43364 97.1103 5.05606C96.8408 4.67843 96.7063 4.2231 96.7063 3.69C96.7063 3.19022 96.8369 2.71821 97.0988 2.27397C97.3604 1.82973 97.726 1.43824 98.1957 1.0995C98.6654 0.755213 99.2273 0.485892 99.8818 0.291535C100.536 0.0971783 101.26 0 102.053 0C102.815 0 103.515 0.091625 104.154 0.274875C104.793 0.452573 105.351 0.680247 105.829 0.957898C106.314 1.23 106.687 1.5132 106.949 1.80751L106.048 2.68212C105.832 2.42668 105.533 2.18234 105.147 1.94912C104.762 1.71589 104.308 1.52709 103.785 1.38271C103.269 1.23278 102.695 1.15781 102.064 1.15781C101.279 1.15781 100.609 1.27998 100.055 1.52431C99.5083 1.76864 99.0928 2.08517 98.8079 2.47388C98.523 2.85704 98.3805 3.26241 98.3805 3.69C98.3805 4.0787 98.4921 4.40912 98.7153 4.6812C98.9389 4.95333 99.2352 5.18375 99.6044 5.37258C99.974 5.55583 100.378 5.71408 100.817 5.84735C101.264 5.98062 101.71 6.10559 102.157 6.22216C102.903 6.42207 103.619 6.63587 104.305 6.86356C104.997 7.08567 105.613 7.35222 106.152 7.66321C106.691 7.96861 107.118 8.34343 107.434 8.78769C107.75 9.22637 107.907 9.75946 107.907 10.387C107.907 11.2088 107.638 11.9085 107.099 12.486C106.56 13.0635 105.832 13.505 104.916 13.8104C104 14.1103 102.965 14.2602 101.81 14.2602Z" fill="#ACA9A9"/>
<path d="M128.314 13.9935V0.249756H133.256C134.503 0.249756 135.581 0.405243 136.49 0.716212C137.398 1.02718 138.099 1.47143 138.591 2.04894C139.092 2.62646 139.342 3.32059 139.342 4.13132C139.342 4.93654 139.092 5.64454 138.591 6.25535C138.099 6.86066 137.398 7.33266 136.49 7.67139C135.581 8.00457 134.503 8.17116 133.256 8.17116H130.069V13.9935H128.314ZM130.069 7.10497H132.841C133.795 7.10497 134.623 6.98559 135.323 6.74682C136.032 6.50805 136.578 6.16929 136.963 5.73061C137.348 5.28635 137.54 4.76437 137.54 4.16464C137.54 3.55382 137.348 3.03461 136.963 2.60702C136.578 2.17388 136.032 1.84625 135.323 1.62413C134.623 1.39646 133.795 1.28262 132.841 1.28262H130.069V7.10497Z" fill="#ACA9A9"/>
<path d="M156.25 13.9935L163.756 0.249756H165.384L172.879 13.9935H170.985L168.664 9.61217H160.477L158.132 13.9935H156.25ZM161.065 8.49604H168.064L164.564 1.91567L161.065 8.49604Z" fill="#ACA9A9"/>
<path d="M201.023 14.2602C199.599 14.2602 198.274 14.0797 197.051 13.7188C195.827 13.3579 194.756 12.8553 193.84 12.2111C192.932 11.5614 192.224 10.8035 191.716 9.93717C191.208 9.07089 190.953 8.1352 190.953 7.13011C190.953 6.12502 191.208 5.18933 191.716 4.32305C192.224 3.45677 192.932 2.70155 193.84 2.0574C194.756 1.4077 195.823 0.902368 197.039 0.541421C198.263 0.180474 199.591 0 201.023 0C202.216 0 203.336 0.12772 204.383 0.38316C205.43 0.633047 206.354 0.977335 207.154 1.41603L206.323 2.47388C205.646 2.07961 204.861 1.77697 203.967 1.56596C203.074 1.35494 202.127 1.24943 201.127 1.24943C199.918 1.24943 198.809 1.39937 197.801 1.69923C196.8 1.9991 195.93 2.41557 195.192 2.94866C194.452 3.48176 193.879 4.10648 193.471 4.82283C193.071 5.53917 192.87 6.30827 192.87 7.13011C192.87 7.95195 193.071 8.72105 193.471 9.4374C193.879 10.1537 194.452 10.7784 195.192 11.3115C195.93 11.8446 196.8 12.2611 197.801 12.561C198.809 12.8608 199.918 13.0108 201.127 13.0108C202.127 13.0108 203.074 12.9053 203.967 12.6943C204.861 12.4832 205.646 12.1806 206.323 11.7863L207.154 12.8442C206.362 13.2773 205.442 13.6216 204.395 13.8771C203.355 14.1325 202.232 14.2602 201.023 14.2602ZM200.63 18.9248C199.999 18.9248 199.426 18.8193 198.91 18.6082C198.401 18.4028 197.982 18.1112 197.651 17.7337L198.448 17.3505C198.925 17.928 199.649 18.2168 200.619 18.2168C201.15 18.2168 201.577 18.1196 201.901 17.9252C202.232 17.7308 202.397 17.4782 202.397 17.1672C202.397 16.8729 202.247 16.6341 201.947 16.4509C201.654 16.2732 201.269 16.1843 200.792 16.1843C200.538 16.1843 200.261 16.2093 199.961 16.2593C199.668 16.3148 199.426 16.3843 199.233 16.4676L199.141 16.4176L200.111 14.2602H201.035L200.388 15.6846C200.634 15.6624 200.842 15.6512 201.012 15.6512C201.188 15.6568 201.354 15.6734 201.508 15.7012C202.085 15.7401 202.551 15.8928 202.905 16.1593C203.267 16.4315 203.448 16.7702 203.448 17.1755C203.448 17.6864 203.182 18.1057 202.651 18.4333C202.127 18.7609 201.454 18.9248 200.63 18.9248Z" fill="#ACA9A9"/>
<path d="M235.186 14.2602C233.854 14.2602 232.607 14.077 231.444 13.7105C230.282 13.344 229.262 12.8358 228.384 12.1862C227.507 11.5309 226.818 10.7729 226.317 9.91216C225.824 9.04592 225.578 8.11855 225.578 7.13011C225.578 6.1361 225.824 5.20876 226.317 4.34802C226.818 3.48731 227.507 2.7321 228.384 2.08239C229.262 1.42713 230.282 0.91625 231.444 0.549751C232.607 0.18325 233.854 0 235.186 0C236.518 0 237.764 0.18325 238.927 0.549751C240.09 0.91625 241.109 1.42713 241.987 2.08239C242.865 2.7321 243.55 3.48731 244.043 4.34802C244.543 5.20876 244.793 6.1361 244.793 7.13011C244.793 8.11855 244.543 9.04592 244.043 9.91216C243.55 10.7729 242.865 11.5309 241.987 12.1862C241.109 12.8358 240.09 13.344 238.927 13.7105C237.764 14.077 236.518 14.2602 235.186 14.2602ZM235.186 13.0357C236.271 13.0357 237.28 12.8858 238.211 12.5859C239.143 12.2861 239.959 11.8668 240.659 11.3282C241.367 10.7896 241.918 10.1621 242.31 9.44571C242.703 8.7294 242.9 7.95749 242.9 7.13011C242.9 6.30269 242.703 5.53083 242.31 4.81448C241.918 4.09813 241.367 3.47065 240.659 2.932C239.959 2.39336 239.143 1.97411 238.211 1.67424C237.28 1.37438 236.271 1.22445 235.186 1.22445C234.1 1.22445 233.088 1.37438 232.149 1.67424C231.217 1.97411 230.401 2.39336 229.7 2.932C229 3.47065 228.45 4.09813 228.049 4.81448C227.657 5.53083 227.46 6.30269 227.46 7.13011C227.46 7.95749 227.657 8.7294 228.049 9.44571C228.45 10.1621 229 10.7896 229.7 11.3282C230.401 11.8668 231.217 12.2861 232.149 12.5859C233.088 12.8858 234.1 13.0357 235.186 13.0357Z" fill="#ACA9A9"/>
<path d="M0 57.2995C0 51.3152 2.13726 46.1857 6.30491 42.0181C10.4726 37.8504 15.602 35.7131 21.5864 35.7131C27.8912 35.7131 33.1275 38.0642 37.402 42.6592C37.9363 43.3006 38.257 43.9416 38.257 44.5827C38.257 45.8652 36.5471 47.575 35.2647 47.575C34.5168 47.575 33.8756 47.2541 33.2343 46.5062C30.1354 43.0865 26.1815 41.3767 21.5864 41.3767C17.2049 41.3767 13.3579 42.9797 10.2588 46.0789C7.15983 49.178 5.66374 52.9182 5.66374 57.2995C5.66374 61.6808 7.15983 65.5278 10.2588 68.627C13.3579 71.7262 17.2049 73.2219 21.5864 73.2219C26.3951 73.2219 30.3492 71.4056 33.5551 67.7723C34.1961 67.024 34.9442 66.5966 35.6923 66.5966C36.9746 66.5966 38.6844 68.0928 38.6844 69.4817C38.6844 70.0159 38.364 70.6574 37.8296 71.4056C33.4482 76.4279 28.105 78.8861 21.5864 78.8861C15.4951 78.8861 10.3657 76.8553 6.19806 72.6877C2.0304 68.5201 0 63.3906 0 57.2995Z" fill="#ACA9A9"/>
<path d="M50.927 57.2995C50.927 51.3152 53.0642 46.1857 57.2318 42.0181C61.3998 37.8504 66.5289 35.7131 72.5132 35.7131C78.4978 35.7131 83.627 37.8504 87.7946 42.0181C91.9625 46.1857 94.0997 51.3152 94.0997 57.2995C94.0997 63.3906 91.9625 68.5201 87.7946 72.6877C83.627 76.8553 78.6043 78.8861 72.5132 78.8861C66.5289 78.8861 61.3998 76.7485 57.2318 72.5809C53.0642 68.4133 50.927 63.2838 50.927 57.2995ZM56.5907 57.2995C56.5907 61.6808 58.0869 65.5278 61.1857 68.627C64.2849 71.7262 68.1319 73.2219 72.5132 73.2219C76.8948 73.2219 80.6346 71.7262 83.7342 68.627C86.833 65.5278 88.436 61.6808 88.436 57.2995C88.436 52.9182 86.833 49.178 83.7342 46.0789C80.6346 42.9797 76.8948 41.3767 72.5132 41.3767C68.1319 41.3767 64.2849 42.9797 61.1857 46.0789C58.0869 49.178 56.5907 52.9182 56.5907 57.2995Z" fill="#ACA9A9"/>
<path d="M106.341 55.269C106.341 50.0326 108.585 45.5445 113.18 41.6975C117.776 37.7435 122.691 35.8201 127.714 35.8201C133.698 35.8201 138.828 37.8504 142.995 41.9112C147.163 45.9719 149.3 50.9946 149.3 56.872V76.0005C149.3 77.8172 148.338 78.7791 146.522 78.7791C144.598 78.7791 143.637 77.8172 143.637 76.0005V56.9789C143.637 52.5976 142.034 48.9642 138.934 45.9719C135.836 42.9796 132.095 41.4838 127.714 41.4838C123.76 41.4838 120.233 42.7663 117.241 45.4377C114.249 48.1095 112.54 51.422 112.005 55.3759V75.8936C112.005 77.8172 111.043 78.7791 109.12 78.7791C107.303 78.7791 106.341 77.8172 106.341 75.8936V55.269Z" fill="#ACA9A9"/>
<path d="M173.063 56.2176C173.063 50.362 175.029 45.5711 178.962 41.7387C182.894 37.7995 187.515 35.8833 192.922 35.8833C194.691 35.8833 195.576 36.8414 195.576 38.7577C195.576 40.5678 194.691 41.5258 192.922 41.5258C188.99 41.5258 185.549 42.91 182.599 45.7844C179.748 48.5524 178.274 52.0655 178.274 56.2176V58.9856C178.274 64.8412 176.307 69.632 172.375 73.358C168.443 77.0844 163.723 78.894 158.317 78.894C156.645 78.894 155.76 77.9359 155.76 76.0199C155.76 74.21 156.645 73.2516 158.317 73.2516C162.249 73.2516 165.69 71.9738 168.639 69.3123C171.588 66.6512 173.063 63.1377 173.063 58.9856V56.2176Z" fill="#ACA9A9"/>
<path d="M216.032 74.9472C217.304 74.9472 217.977 75.6176 217.977 76.9578C217.977 78.2237 215.957 79.2628 214.685 79.2628C210.272 79.2628 206.42 78.4473 203.503 74.9472C200.735 71.5964 199.202 66.4581 199.202 61.9902V33.4699C199.202 32.1295 200.633 30.9678 201.905 30.9678C203.251 30.9678 204.886 32.1295 204.886 33.4699V46.2035H216.181C217.453 46.2035 218.126 46.8739 218.126 48.1397C218.126 49.48 217.453 50.1503 216.181 50.1503H204.886V61.9902C204.886 65.3411 205.859 68.3199 207.878 70.8517C210.048 73.607 212.74 74.9472 216.032 74.9472Z" fill="#ACA9A9"/>
<path d="M234.442 57.0859C234.442 50.9948 236.471 45.9721 240.64 41.8045C244.808 37.6368 249.937 35.4995 256.027 35.4995C257.844 35.4995 258.807 36.4615 258.807 38.3849C258.807 40.2015 257.844 41.1635 256.027 41.1635C251.648 41.1635 247.799 42.7665 244.7 45.8653C241.603 48.9644 240.106 52.7047 240.106 57.0859V76.1075C240.106 77.9242 239.143 78.8862 237.221 78.8862C235.404 78.8862 234.442 77.9242 234.442 76.1075V57.0859Z" fill="#ACA9A9"/>
<path d="M271.241 35.7131C273.166 35.7131 274.127 36.6749 274.127 38.4916V57.9405C274.127 62.3222 275.624 66.0624 278.723 69.0544C281.822 71.9398 285.668 73.436 290.051 73.436C298.171 73.436 304.797 67.5582 305.758 59.5436V38.5985C305.758 36.6749 306.719 35.7131 308.644 35.7131C310.46 35.7131 311.421 36.6749 311.421 38.5985V59.7572C311.421 64.9936 309.177 69.4817 304.689 73.3288C300.201 77.1762 295.285 79.0993 290.051 79.0993C284.066 79.0993 278.936 77.069 274.768 73.0082C270.6 68.9475 268.464 63.9252 268.464 58.0474V38.4916C268.464 36.6749 269.425 35.7131 271.241 35.7131Z" fill="#ACA9A9"/>
</svg>
