<svg width="568" height="265" viewBox="0 0 568 265" fill="none" xmlns="http://www.w3.org/2000/svg">
<path d="M70.2773 196.457L0 0H43.0289L92.6383 145.41L140.842 0H182.913L112.635 196.457H70.2773Z" fill="white"/>
<path d="M192.72 196.457V0H232.363V196.457H192.72Z" fill="white"/>
<path d="M362.535 0H320.592L244.085 196.457H286.156L302.384 151.831L314.554 118.737L341.1 45.84L368.157 118.737L380.903 151.831L398.057 196.457H441.213L362.535 0Z" fill="white"/>
<path d="M460.367 198.342L460.367 156.814C460.243 150.685 460.585 144.556 461.389 138.478C462.007 134.599 463.468 130.903 465.67 127.649C467.919 124.379 470.878 121.66 474.327 119.695C478.012 117.557 482.205 116.454 486.465 116.501C491.206 116.468 495.851 117.835 499.818 120.43C503.835 123.01 507.01 126.707 508.954 131.067C510.418 125.32 513.715 120.206 518.346 116.501C522.834 113.1 528.337 111.31 533.967 111.422C538.742 111.399 543.457 112.493 547.734 114.616C551.997 116.65 555.67 119.74 558.404 123.592C561.223 127.777 562.917 132.618 563.323 137.648C563.707 141.119 563.941 149.531 564.026 162.884L564.026 198.342L460.367 198.342ZM518.857 177.386L546.553 177.386L546.553 158.028C546.702 153.228 546.499 148.424 545.946 143.653C545.464 140.721 543.999 138.04 541.793 136.051C539.327 133.999 536.18 132.95 532.976 133.112C530.165 133.031 527.397 133.823 525.054 135.38C522.828 137.01 521.173 139.302 520.326 141.928C519.027 148.024 518.533 154.264 518.857 160.488L518.857 177.386ZM477.617 177.386L501.607 177.386L501.607 163.714C501.607 155.537 501.607 150.489 501.224 148.509C500.988 145.348 499.681 142.361 497.518 140.044C496.461 138.987 495.199 138.158 493.809 137.608C492.418 137.059 490.93 136.8 489.436 136.849C486.588 136.727 483.797 137.672 481.61 139.501C479.459 141.617 478.192 144.472 478.064 147.487C477.841 149.563 477.713 155.505 477.713 165.375L477.617 177.386Z" fill="white"/>
<path d="M564.026 93.7244L460.367 93.7244L460.367 49.6733C459.987 41.5262 460.925 33.3711 463.146 25.5234C465.032 20.5442 468.529 16.3388 473.081 13.5763C477.977 10.5093 483.66 8.93327 489.436 9.04021C496.465 8.81624 503.316 11.2712 508.603 15.9082C514.129 21.3908 517.526 28.6599 518.186 36.4164C520.519 32.2745 523.446 28.4969 526.875 25.204C532.13 20.7512 537.763 16.7644 543.71 13.2888L563.93 0.511101L563.93 25.5554L541.378 40.6969C536.07 44.0439 530.981 47.7249 526.14 51.7177C524.197 53.4581 522.715 55.6532 521.828 58.1065C520.897 61.5285 520.499 65.0731 520.646 68.6162L520.646 72.8009L564.026 72.8009L564.026 93.7244ZM504.195 72.8009L504.195 57.3079C504.507 51.0198 504.089 44.7165 502.949 38.5247C502.158 36.1636 500.608 34.1305 498.54 32.7428C496.23 31.259 493.523 30.5126 490.778 30.6026C487.707 30.4688 484.694 31.4693 482.313 33.4137C480.061 35.4748 478.622 38.2737 478.256 41.3039C478.032 42.9969 477.904 48.076 477.904 56.5732L477.904 72.8009L504.195 72.8009Z" fill="white"/>
<path d="M223.993 248.91L229.519 250.283C228.664 254.335 226.47 257.981 223.29 260.633C220.145 263.073 216.247 264.338 212.269 264.211C208.407 264.385 204.577 263.431 201.248 261.464C198.354 259.544 196.123 256.777 194.86 253.542C193.376 250.002 192.626 246.199 192.655 242.361C192.571 238.44 193.414 234.555 195.115 231.021C196.674 227.868 199.175 225.279 202.271 223.61C205.367 221.926 208.841 221.057 212.365 221.086C216.123 220.973 219.815 222.095 222.875 224.281C225.79 226.509 227.881 229.645 228.816 233.193L223.386 234.471C222.708 231.879 221.233 229.566 219.169 227.858C217.15 226.421 214.713 225.691 212.237 225.782C209.388 225.679 206.581 226.485 204.219 228.082C202.09 229.602 200.501 231.762 199.683 234.247C198.819 236.821 198.377 239.518 198.373 242.233C198.319 245.402 198.849 248.553 199.939 251.529C200.823 253.993 202.525 256.079 204.762 257.439C206.89 258.729 209.334 259.403 211.822 259.387C214.666 259.483 217.448 258.54 219.648 256.736C221.938 254.692 223.469 251.934 223.993 248.91Z" fill="white"/>
<path d="M233.768 263.508V221.981H263.891V226.804H239.294V239.582H262.326V244.469H239.294V258.748H264.849V263.668L233.768 263.508Z" fill="white"/>
<path d="M271.11 263.508V221.981H276.765L298.646 254.66V221.885H303.917V263.412H298.263L276.413 230.797V263.508H271.11Z" fill="white"/>
<path d="M308.645 243.224C308.294 237.385 310.076 231.618 313.66 226.996C315.211 225.119 317.165 223.615 319.378 222.598C321.59 221.58 324.003 221.074 326.438 221.118C329.756 221.081 333.009 222.05 335.765 223.897C338.603 225.769 340.825 228.436 342.154 231.564C343.645 235.1 344.385 238.908 344.327 242.745C344.391 246.647 343.606 250.516 342.027 254.085C340.715 257.198 338.486 259.839 335.638 261.656C332.908 263.33 329.768 264.215 326.566 264.211C323.154 264.278 319.805 263.285 316.982 261.368C314.153 259.446 311.936 256.752 310.593 253.606C309.241 250.315 308.578 246.781 308.645 243.224ZM313.756 243.224C313.513 247.483 314.805 251.688 317.398 255.075C318.509 256.426 319.907 257.515 321.489 258.262C323.071 259.009 324.8 259.397 326.55 259.397C328.299 259.397 330.028 259.009 331.61 258.262C333.193 257.515 334.59 256.426 335.702 255.075C338.281 251.511 339.555 247.169 339.311 242.777C339.381 239.742 338.849 236.724 337.746 233.896C336.849 231.54 335.284 229.497 333.242 228.018C331.289 226.644 328.953 225.918 326.566 225.942C324.857 225.936 323.167 226.295 321.608 226.995C320.049 227.694 318.657 228.718 317.525 229.999C315.002 232.586 313.756 237.059 313.756 243.32V243.224Z" fill="white"/>
<path d="M367.998 247.185V242.297H385.631V257.726C383.116 259.786 380.291 261.435 377.262 262.614C374.424 263.689 371.415 264.241 368.381 264.243C364.506 264.298 360.677 263.398 357.233 261.623C353.978 259.941 351.331 257.282 349.662 254.021C347.935 250.572 347.058 246.761 347.106 242.904C347.087 238.979 347.961 235.101 349.662 231.564C351.166 228.185 353.735 225.391 356.977 223.61C360.371 221.858 364.147 220.979 367.966 221.054C370.75 221.024 373.514 221.523 376.112 222.524C378.354 223.359 380.337 224.769 381.862 226.613C383.401 228.626 384.491 230.946 385.056 233.417L380.105 234.79C379.632 232.993 378.842 231.295 377.773 229.775C376.719 228.474 375.342 227.472 373.78 226.868C371.968 226.12 370.022 225.75 368.062 225.782C365.878 225.752 363.709 226.142 361.673 226.932C359.965 227.638 358.445 228.732 357.233 230.126C356.145 231.339 355.26 232.72 354.613 234.215C353.536 236.884 352.993 239.739 353.016 242.617C352.909 245.823 353.566 249.009 354.933 251.912C356.12 254.347 358.088 256.315 360.523 257.503C362.938 258.688 365.595 259.3 368.285 259.291C370.685 259.296 373.061 258.829 375.281 257.918C377.054 257.191 378.694 256.176 380.137 254.915V247.185H367.998Z" fill="white"/>
<path d="M392.914 263.508V221.981H411.378C414.244 221.849 417.11 222.228 419.843 223.099C421.795 223.85 423.43 225.248 424.475 227.06C425.65 228.98 426.249 231.198 426.2 233.449C426.238 234.823 426.003 236.191 425.51 237.474C425.016 238.757 424.274 239.929 423.325 240.924C420.902 243.183 417.78 244.547 414.476 244.789C415.629 245.335 416.704 246.034 417.671 246.865C419.416 248.512 420.95 250.368 422.239 252.392L429.49 263.732H422.558L417.032 255.075C415.435 252.551 414.093 250.667 413.071 249.325C412.278 248.263 411.33 247.327 410.26 246.546C409.494 246.042 408.653 245.665 407.768 245.428C406.712 245.266 405.642 245.202 404.574 245.236H398.185V263.732L392.914 263.508ZM398.44 240.253H410.26C412.261 240.336 414.262 240.065 416.17 239.454C417.487 239.012 418.614 238.133 419.364 236.963C420.106 235.858 420.496 234.555 420.482 233.225C420.494 232.31 420.309 231.402 419.94 230.565C419.571 229.727 419.026 228.978 418.342 228.37C416.388 226.94 413.981 226.27 411.57 226.485H398.409L398.44 240.253Z" fill="white"/>
<path d="M435.975 263.572L451.947 222.045H457.889L474.915 263.572H468.526L463.67 250.794H446.261L441.693 263.572H435.975ZM447.986 246.482H462.105L457.761 234.95C456.451 231.436 455.461 228.561 454.822 226.325C454.27 229.027 453.523 231.685 452.586 234.279L447.986 246.482Z" fill="white"/>
<path d="M481.176 263.508V221.981H509.255V226.804H486.67V239.582H506.22V244.501H486.67V263.412L481.176 263.508Z" fill="white"/>
<path d="M515.868 263.508V221.981H521.394V263.508H515.868Z" fill="white"/>
<path d="M529.06 263.508L545.032 221.981H550.974L568 263.508H561.611L556.756 250.89H539.346L534.778 263.508H529.06ZM541.071 246.418H555.19L550.846 234.886C549.536 231.372 548.546 228.497 547.907 226.229C547.367 228.937 546.609 231.598 545.639 234.183L541.071 246.418Z" fill="white"/>
</svg>
