<svg xmlns="http://www.w3.org/2000/svg" viewBox="0 0 177.82 82.71"><defs></defs><g id="Camada_2" data-name="Camada 2"><g id="Camada_1-2" data-name="Camada 1"><g class="cls-1"><path d="M22,61.5,0,0H13.47L29,45.52,44.09,0H57.26l-22,61.5Z"></path><path d="M60.33,61.5V0H72.74V61.5Z"></path></g><g class="cls-1"><polygon points="113.49 0 100.36 0 76.41 61.5 89.58 61.5 94.66 47.53 98.47 37.17 106.78 14.35 115.25 37.17 119.24 47.53 124.61 61.5 138.12 61.5 113.49 0"></polygon></g><g class="cls-1"><path d="M176.54.16v13a37.93,37.93,0,0,1-.32,5.74,8.41,8.41,0,0,1-1.34,3.39,8.24,8.24,0,0,1-2.71,2.49,7.41,7.41,0,0,1-3.8,1,7.54,7.54,0,0,1-4.18-1.23,7.67,7.67,0,0,1-2.86-3.33,8.54,8.54,0,0,1-2.94,4.56,7.84,7.84,0,0,1-4.89,1.59,9.59,9.59,0,0,1-4.31-1,8.68,8.68,0,0,1-3.34-2.81,9.2,9.2,0,0,1-1.54-4.4q-.18-1.63-.22-7.9V.16ZM158.23,6.72h-8.67v6.06a30.73,30.73,0,0,0,.19,4.5,4.1,4.1,0,0,0,1.3,2.38,4,4,0,0,0,2.76.92,4.26,4.26,0,0,0,2.48-.71,4.1,4.1,0,0,0,1.48-2.05,22.31,22.31,0,0,0,.46-5.81Zm12.91,0h-7.51V11c0,2.56,0,4.14.12,4.76a4.36,4.36,0,0,0,1.16,2.65,3.42,3.42,0,0,0,2.53,1,3.58,3.58,0,0,0,2.45-.83A3.73,3.73,0,0,0,171,16.08c.07-.65.11-2.51.11-5.6Z"></path><path d="M144.09,32.91h32.45V46.7a23.7,23.7,0,0,1-.87,7.56A7.47,7.47,0,0,1,172.56,58a9.32,9.32,0,0,1-5.12,1.42,8.68,8.68,0,0,1-6-2.15,10.27,10.27,0,0,1-3-6.42,15.23,15.23,0,0,1-2.72,3.51,37.15,37.15,0,0,1-5.27,3.73l-6.33,4V54.25l7.06-4.74a46.35,46.35,0,0,0,4.77-3.45,4.94,4.94,0,0,0,1.35-2,10.83,10.83,0,0,0,.37-3.29V39.46H144.09Zm18.73,6.55v4.85a25.48,25.48,0,0,0,.39,5.88A3.53,3.53,0,0,0,164.59,52a4.24,4.24,0,0,0,2.43.67,3.92,3.92,0,0,0,2.65-.88,4,4,0,0,0,1.27-2.47c.07-.53.11-2.12.11-4.78V39.46Z"></path></g><g class="cls-1"><path d="M70.12,77.92l1.73.43a5.77,5.77,0,0,1-1.95,3.24,5.35,5.35,0,0,1-3.45,1.12A6.23,6.23,0,0,1,63,81.85a5.28,5.28,0,0,1-2-2.48,8.88,8.88,0,0,1-.69-3.5,7.8,7.8,0,0,1,.77-3.55A5.31,5.31,0,0,1,63.32,70a6.5,6.5,0,0,1,3.16-.79,5.38,5.38,0,0,1,3.29,1A5.17,5.17,0,0,1,71.63,73l-1.7.4a4,4,0,0,0-1.32-2.07,3.52,3.52,0,0,0-2.17-.65,4.21,4.21,0,0,0-2.51.72,3.85,3.85,0,0,0-1.42,1.93,7.89,7.89,0,0,0-.41,2.5,8.06,8.06,0,0,0,.49,2.91,3.58,3.58,0,0,0,1.51,1.85,4.21,4.21,0,0,0,2.21.61,3.67,3.67,0,0,0,2.45-.83A4.26,4.26,0,0,0,70.12,77.92Z"></path><path d="M73.18,82.49v-13h9.43V71h-7.7v4h7.21v1.53H74.91V81h8v1.54Z"></path><path d="M84.87,82.49v-13h1.77l6.85,10.23V69.46h1.65v13H93.37L86.53,72.25V82.49Z"></path><path d="M96.62,76.14a7.55,7.55,0,0,1,1.57-5.08,5.07,5.07,0,0,1,4-1.84,5.14,5.14,0,0,1,2.92.87,5.41,5.41,0,0,1,2,2.4,8.67,8.67,0,0,1,.68,3.5,8.43,8.43,0,0,1-.72,3.55,5.21,5.21,0,0,1-2,2.37,5.42,5.42,0,0,1-2.84.8,5.16,5.16,0,0,1-3-.89,5.59,5.59,0,0,1-2-2.43A8.15,8.15,0,0,1,96.62,76.14Zm1.6,0a5.58,5.58,0,0,0,1.14,3.71,3.71,3.71,0,0,0,5.73,0A6,6,0,0,0,106.22,76a7.19,7.19,0,0,0-.49-2.78,4.05,4.05,0,0,0-1.41-1.84,3.57,3.57,0,0,0-2.09-.65A3.76,3.76,0,0,0,99.4,72C98.61,72.81,98.22,74.21,98.22,76.17Z"></path><path d="M115.2,77.38V75.85h5.52v4.83a9.67,9.67,0,0,1-2.62,1.53,7.86,7.86,0,0,1-2.78.51,7.39,7.39,0,0,1-3.49-.82,5.5,5.5,0,0,1-2.37-2.38,7.56,7.56,0,0,1-.8-3.48,8.1,8.1,0,0,1,.8-3.55A5.3,5.3,0,0,1,111.75,70a7.19,7.19,0,0,1,3.44-.8,6.89,6.89,0,0,1,2.55.46,4.27,4.27,0,0,1,1.8,1.28,5.54,5.54,0,0,1,1,2.13l-1.55.43a4.89,4.89,0,0,0-.73-1.57,3,3,0,0,0-1.25-.91,4.5,4.5,0,0,0-1.79-.34,5.33,5.33,0,0,0-2,.36,3.73,3.73,0,0,0-1.39,1,4.73,4.73,0,0,0-.82,1.28,6.88,6.88,0,0,0-.5,2.63,6.34,6.34,0,0,0,.6,2.91,3.8,3.8,0,0,0,1.75,1.75,5.48,5.48,0,0,0,2.43.56,5.74,5.74,0,0,0,2.19-.43A5.45,5.45,0,0,0,119,79.8V77.38Z"></path><path d="M123,82.49v-13h5.78a7.58,7.58,0,0,1,2.65.35,2.86,2.86,0,0,1,1.45,1.24,3.68,3.68,0,0,1,.54,2,3.26,3.26,0,0,1-.9,2.34,4.55,4.55,0,0,1-2.77,1.21,4.47,4.47,0,0,1,1,.65,9.09,9.09,0,0,1,1.43,1.73l2.27,3.55h-2.17l-1.73-2.71c-.5-.79-.92-1.38-1.24-1.8a4.15,4.15,0,0,0-.88-.87,2.68,2.68,0,0,0-.78-.35,5.44,5.44,0,0,0-1-.06h-2v5.79Zm1.73-7.28h3.7a5.34,5.34,0,0,0,1.85-.25,1.91,1.91,0,0,0,1-.78,2.06,2.06,0,0,0,.35-1.17,2,2,0,0,0-.67-1.52,3.12,3.12,0,0,0-2.12-.59h-4.12Z"></path><path d="M136.48,82.51l5-13h1.86l5.33,13h-2l-1.52-4h-5.45l-1.43,4Zm3.76-5.35h4.42l-1.36-3.61c-.41-1.1-.72-2-.92-2.7a17.84,17.84,0,0,1-.7,2.49Z"></path><path d="M150.63,82.49v-13h8.79V71h-7.07v4h6.12v1.54h-6.12v5.92Z"></path><path d="M161.49,82.49v-13h1.73v13Z"></path><path d="M165.62,82.49l5-13h1.86l5.33,13h-2l-1.52-3.95h-5.45l-1.43,3.95Zm3.76-5.35h4.42l-1.36-3.61c-.41-1.1-.72-2-.92-2.71a16,16,0,0,1-.71,2.49Z"></path></g></g></g></svg>