<svg width="568" height="265" viewBox="0 0 568 265" fill="none" xmlns="http://www.w3.org/2000/svg">
<path d="M70.2773 196.457L0 6.10352e-05H43.0289L92.6383 145.41L140.842 6.10352e-05H182.913L112.635 196.457H70.2773Z" fill="white"/>
<path d="M192.72 196.457V6.10352e-05H232.362V196.457H192.72Z" fill="white"/>
<path d="M362.535 6.10352e-05H320.592L244.085 196.457H286.156L302.384 151.831L314.554 118.737L341.1 45.84L368.157 118.737L380.903 151.831L398.057 196.457H441.213L362.535 6.10352e-05Z" fill="white"/>
<path d="M563.944 0.511353V42.0388C564.067 48.1679 563.726 54.2975 562.921 60.3748C562.304 64.2541 560.842 67.9506 558.641 71.2039C556.392 74.474 553.432 77.1932 549.984 79.158C546.299 81.2958 542.105 82.3994 537.845 82.3525C533.105 82.3854 528.46 81.0186 524.493 78.4233C520.476 75.8433 517.301 72.146 515.357 67.7859C513.893 73.5332 510.596 78.6469 505.965 82.3525C501.477 85.7534 495.974 87.5428 490.344 87.4316C485.569 87.4545 480.854 86.3606 476.576 84.2372C472.313 82.2027 468.641 79.1129 465.907 75.2608C463.088 71.0757 461.393 66.2352 460.987 61.2054C460.604 57.7341 460.37 49.3221 460.285 35.9694V0.511353H563.944ZM505.454 21.4668H477.758V40.825C477.609 45.625 477.811 50.4295 478.365 55.1999C478.847 58.1318 480.311 60.8128 482.518 62.8026C484.984 64.8541 488.131 65.9032 491.334 65.7415C494.146 65.8224 496.914 65.03 499.257 63.4734C501.483 61.8431 503.138 59.5513 503.984 56.9249C505.284 50.8292 505.778 44.5894 505.454 38.3653V21.4668ZM546.694 21.4668H522.704V35.1389C522.704 43.3166 522.704 48.3638 523.087 50.3443C523.323 53.5056 524.63 56.4917 526.793 58.8096C527.849 59.8666 529.112 60.6955 530.502 61.245C531.892 61.7944 533.38 62.0528 534.874 62.004C537.723 62.1265 540.514 61.181 542.701 59.3526C544.851 57.2357 546.119 54.3815 546.247 51.3666C546.47 49.2902 546.598 43.3486 546.598 33.4778L546.694 21.4668Z" fill="white"/>
<path d="M460.285 105.129H563.944V149.18C564.324 157.327 563.386 165.482 561.165 173.33C559.279 178.309 555.782 182.514 551.23 185.277C546.334 188.344 540.651 189.92 534.874 189.813C527.846 190.037 520.995 187.582 515.708 182.945C510.182 177.462 506.785 170.193 506.125 162.437C503.792 166.579 500.864 170.356 497.436 173.649C492.181 178.102 486.548 182.089 480.601 185.564L460.38 198.342V173.298L482.933 158.156C488.241 154.809 493.33 151.128 498.171 147.135C500.114 145.395 501.596 143.2 502.483 140.747C503.413 137.325 503.812 133.78 503.665 130.237V126.052H460.285V105.129ZM520.116 126.052V141.545C519.804 147.833 520.222 154.137 521.362 160.328C522.153 162.69 523.703 164.723 525.77 166.11C528.081 167.594 530.788 168.341 533.533 168.251C536.604 168.384 539.617 167.384 541.998 165.439C544.249 163.378 545.688 160.579 546.055 157.549C546.279 155.856 546.406 150.777 546.406 142.28V126.052H520.116Z" fill="white"/>
<path d="M223.993 248.91L229.519 250.283C228.664 254.335 226.47 257.981 223.29 260.633C220.145 263.073 216.247 264.338 212.269 264.211C208.407 264.385 204.577 263.431 201.249 261.464C198.354 259.544 196.123 256.777 194.86 253.542C193.376 250.002 192.626 246.199 192.656 242.361C192.572 238.44 193.414 234.555 195.115 231.021C196.675 227.868 199.175 225.279 202.271 223.61C205.367 221.926 208.841 221.057 212.365 221.086C216.124 220.973 219.815 222.095 222.875 224.281C225.791 226.509 227.881 229.645 228.816 233.193L223.386 234.471C222.708 231.879 221.233 229.566 219.169 227.858C217.151 226.421 214.714 225.691 212.237 225.782C209.389 225.679 206.581 226.485 204.219 228.082C202.09 229.602 200.501 231.762 199.683 234.247C198.819 236.821 198.377 239.518 198.374 242.233C198.319 245.402 198.85 248.553 199.939 251.529C200.823 253.993 202.526 256.079 204.762 257.439C206.89 258.729 209.334 259.403 211.822 259.387C214.666 259.483 217.448 258.54 219.648 256.736C221.938 254.692 223.469 251.934 223.993 248.91Z" fill="white"/>
<path d="M233.768 263.508V221.981H263.891V226.804H239.294V239.582H262.326V244.469H239.294V258.748H264.85V263.668L233.768 263.508Z" fill="white"/>
<path d="M271.111 263.508V221.981H276.765L298.647 254.66V221.885H303.917V263.412H298.263L276.413 230.797V263.508H271.111Z" fill="white"/>
<path d="M308.645 243.224C308.294 237.385 310.076 231.618 313.66 226.996C315.211 225.119 317.165 223.615 319.378 222.598C321.59 221.58 324.003 221.074 326.438 221.118C329.756 221.081 333.009 222.05 335.766 223.897C338.603 225.769 340.825 228.436 342.154 231.564C343.645 235.1 344.385 238.908 344.327 242.745C344.391 246.647 343.606 250.516 342.027 254.085C340.715 257.198 338.486 259.839 335.638 261.656C332.908 263.33 329.768 264.215 326.566 264.211C323.154 264.278 319.805 263.285 316.982 261.368C314.153 259.446 311.936 256.752 310.593 253.606C309.241 250.315 308.578 246.781 308.645 243.224ZM313.756 243.224C313.513 247.483 314.805 251.688 317.398 255.075C318.509 256.426 319.907 257.515 321.489 258.262C323.071 259.009 324.8 259.397 326.55 259.397C328.3 259.397 330.028 259.009 331.61 258.262C333.193 257.515 334.59 256.426 335.702 255.075C338.281 251.511 339.555 247.169 339.311 242.777C339.382 239.742 338.85 236.724 337.746 233.896C336.849 231.54 335.284 229.497 333.242 228.018C331.289 226.644 328.954 225.918 326.566 225.942C324.857 225.936 323.167 226.295 321.608 226.995C320.049 227.694 318.657 228.718 317.525 229.999C315.002 232.586 313.756 237.059 313.756 243.32V243.224Z" fill="white"/>
<path d="M367.998 247.185V242.297H385.631V257.726C383.116 259.786 380.291 261.435 377.262 262.614C374.424 263.689 371.415 264.241 368.381 264.243C364.506 264.298 360.678 263.398 357.233 261.623C353.978 259.941 351.331 257.282 349.662 254.021C347.935 250.572 347.058 246.761 347.106 242.904C347.087 238.979 347.961 235.101 349.662 231.564C351.166 228.185 353.735 225.391 356.977 223.61C360.371 221.858 364.148 220.979 367.966 221.054C370.75 221.024 373.514 221.523 376.112 222.524C378.354 223.359 380.337 224.769 381.862 226.613C383.401 228.626 384.491 230.946 385.056 233.417L380.105 234.79C379.632 232.993 378.842 231.295 377.773 229.775C376.719 228.474 375.342 227.472 373.78 226.868C371.968 226.12 370.022 225.75 368.062 225.782C365.878 225.752 363.709 226.142 361.673 226.932C359.965 227.638 358.445 228.732 357.233 230.126C356.145 231.339 355.26 232.72 354.613 234.215C353.536 236.884 352.993 239.739 353.016 242.617C352.91 245.823 353.567 249.009 354.933 251.912C356.12 254.347 358.088 256.315 360.523 257.503C362.939 258.688 365.595 259.3 368.285 259.291C370.685 259.296 373.062 258.829 375.281 257.918C377.054 257.191 378.694 256.176 380.137 254.915V247.185H367.998Z" fill="white"/>
<path d="M392.914 263.508V221.981H411.378C414.244 221.849 417.11 222.228 419.843 223.099C421.795 223.85 423.43 225.248 424.475 227.06C425.65 228.98 426.249 231.198 426.2 233.449C426.238 234.823 426.003 236.191 425.51 237.474C425.017 238.757 424.274 239.929 423.325 240.924C420.902 243.183 417.78 244.547 414.477 244.789C415.629 245.335 416.704 246.034 417.671 246.865C419.416 248.512 420.951 250.368 422.239 252.392L429.49 263.732H422.559L417.032 255.075C415.435 252.551 414.093 250.667 413.071 249.325C412.278 248.263 411.331 247.327 410.26 246.546C409.495 246.042 408.653 245.665 407.768 245.428C406.712 245.266 405.642 245.202 404.574 245.236H398.185V263.732L392.914 263.508ZM398.441 240.253H410.26C412.262 240.336 414.262 240.065 416.17 239.454C417.487 239.012 418.614 238.133 419.364 236.963C420.106 235.858 420.496 234.555 420.482 233.225C420.494 232.31 420.309 231.402 419.94 230.565C419.571 229.727 419.026 228.978 418.342 228.37C416.388 226.94 413.981 226.27 411.57 226.485H398.409L398.441 240.253Z" fill="white"/>
<path d="M435.975 263.572L451.947 222.045H457.889L474.915 263.572H468.526L463.67 250.794H446.261L441.693 263.572H435.975ZM447.986 246.482H462.105L457.761 234.95C456.451 231.436 455.461 228.561 454.822 226.325C454.27 229.027 453.523 231.685 452.586 234.279L447.986 246.482Z" fill="white"/>
<path d="M481.176 263.508V221.981H509.255V226.804H486.67V239.582H506.22V244.501H486.67V263.412L481.176 263.508Z" fill="white"/>
<path d="M515.868 263.508V221.981H521.394V263.508H515.868Z" fill="white"/>
<path d="M529.06 263.508L545.032 221.981H550.974L568 263.508H561.611L556.756 250.89H539.346L534.778 263.508H529.06ZM541.071 246.418H555.19L550.846 234.886C549.536 231.372 548.546 228.497 547.907 226.229C547.367 228.937 546.609 231.598 545.639 234.183L541.071 246.418Z" fill="white"/>
</svg>
