<svg width="324" height="73" viewBox="0 0 324 73" fill="none" xmlns="http://www.w3.org/2000/svg">
<path fill-rule="evenodd" clip-rule="evenodd" d="M132.474 18.5148C132.427 17.1631 132.464 15.8097 132.585 14.4627C132.751 13.0761 133.049 11.7085 133.475 10.3787C133.784 9.46466 134.167 8.57713 134.62 7.72501C135.461 6.17646 136.626 4.82722 138.036 3.76884C139.445 2.71046 141.066 1.96777 142.787 1.5912C145.01 1.15067 147.275 0.958798 149.541 1.01913C160.204 1.01913 163.509 1.01913 164.732 1.01913C166.784 1.08498 168.821 1.38894 170.803 1.9249C173.035 2.56202 175.019 3.86475 176.492 5.65923C178.351 8.22819 179.478 11.2549 179.749 14.415C180.21 19.7543 179.447 24.1719 176.762 27.795C175.41 29.4026 173.709 30.6799 171.788 31.5293C168.133 33.023 167.211 32.6575 149.874 32.737C147.395 32.7891 144.917 32.6136 142.47 32.2126C139.736 31.4927 137.321 29.8823 135.605 27.636C135.324 27.2637 135.064 26.8765 134.826 26.476C133.456 24.0033 132.653 21.2568 132.474 18.4354V18.5148ZM159.329 8.90093C158.63 8.90093 152.179 8.90093 150.558 8.90093C147.38 9.02804 146.919 8.90093 145.457 9.34587C140.515 11.0303 140.976 18.6578 141.755 20.9143C142.946 24.4102 144.027 24.7757 146.824 25.3478C148.925 25.678 151.055 25.7899 153.18 25.6815C161.793 25.6815 161.793 25.6815 164.986 25.5067C166.221 25.4224 167.411 25.011 168.435 24.3149C169.655 23.3935 170.487 22.0508 170.771 20.5488C171.146 18.5404 171.183 16.4835 170.882 14.4627C170.763 13.3485 170.345 12.287 169.674 11.3895C169.003 10.492 168.103 9.79163 167.068 9.36173C166.48 9.13927 165.972 8.93271 159.282 8.90093H159.329Z" fill="#676766"/>
<path fill-rule="evenodd" clip-rule="evenodd" d="M119.349 10.0926V32.0218C119.222 32.6098 119.095 32.5939 118.491 32.5939C117.887 32.5939 110.99 32.5939 110.736 32.5939C110.164 32.4349 110.211 32.2919 110.195 31.6881C110.18 31.0842 110.195 9.64769 110.195 9.44113C110.195 9.23453 109.512 8.99616 109.449 8.99616C107.86 8.99616 82.6413 8.99616 79.7332 8.99616C72.36 8.69424 70.7867 10.0132 69.5311 11.8406C67.9424 14.0812 67.0366 21.5975 71.0091 24.2989C71.9129 24.8813 72.9322 25.2608 73.9967 25.4113C75.5858 25.8244 76.968 25.6337 86.8203 25.6337H96.3549C97.6259 25.6337 96.9745 26.3171 96.3549 27.4612C96.3549 27.5406 94.2414 31.3544 94.0032 31.8629C93.8738 32.1709 93.7024 32.4597 93.4943 32.721C92.9067 33.15 92.8271 32.721 87.1381 32.8163C82.371 32.8163 82.371 32.8958 77.6039 32.9117C75.2317 33.0112 72.8554 32.9102 70.5006 32.6098C68.471 32.296 66.5348 31.5422 64.8278 30.4009C63.0954 29.2141 61.6993 27.5992 60.7753 25.7132C60.6008 25.3795 59.9016 23.6633 59.8062 23.3455C58.978 20.511 58.7188 17.5407 59.0433 14.6056C59.3282 11.7904 60.3594 9.10237 62.0309 6.81914C63.0807 5.37114 64.3964 4.13618 65.908 3.18018C67.6266 2.17721 69.5287 1.52881 71.5017 1.27329C73.9488 0.812463 77.6356 1.0985 95.5444 0.97137C106.128 0.97137 118.57 1.22562 132.331 0.97137C132.657 0.952143 132.983 0.978889 133.301 1.05082C133.619 1.32097 133.396 1.40042 132.919 2.98949C132.919 3.19607 132.84 3.18018 132.061 5.40489C130.917 8.74192 130.647 8.82138 130.361 8.9167C130.075 9.01207 120.398 8.80547 119.81 8.9167C119.222 9.02798 119.349 9.74306 119.349 10.0608V10.0926Z" fill="#676766"/>
<path fill-rule="evenodd" clip-rule="evenodd" d="M309.863 0.446978C311.804 0.510018 313.712 0.974636 315.465 1.81154C317.218 2.64843 318.779 3.83946 320.048 5.30953C320.732 6.2022 321.343 7.14806 321.876 8.13807C323.184 11.0846 323.799 14.2922 323.671 17.5136C323.576 21.8359 322.528 28.3987 315.869 31.8152C314.915 32.2808 313.92 32.6584 312.898 32.9435C311.944 33.2295 303.363 34.9934 298.135 28.5258C296.956 27.02 296.047 25.321 295.45 23.5044C294.474 20.118 294.268 16.5564 294.846 13.0801C294.846 13.0801 295.37 10.9031 295.418 10.7282C296.11 8.34052 297.376 6.15832 299.104 4.37198C300.531 3.01187 302.222 1.96114 304.073 1.28571C305.925 0.610282 307.895 0.324734 309.863 0.446978ZM309.195 26.8255H309.878C310.799 26.6642 311.654 26.2435 312.344 25.613C313.033 24.9825 313.528 24.1683 313.772 23.266C314.197 22.195 314.449 21.0633 314.518 19.9131C314.63 18.8484 315.774 8.02684 309.878 7.34354C305.349 6.81915 304.412 11.8883 304.221 12.5239C303.645 15.5273 303.591 18.6076 304.062 21.6293C304.308 22.9985 304.887 24.2864 305.747 25.3795C306.156 25.8905 306.685 26.2937 307.286 26.554C307.887 26.8144 308.542 26.9239 309.195 26.8732V26.8255Z" fill="white"/>
<path fill-rule="evenodd" clip-rule="evenodd" d="M207.24 1.13029C212.548 1.6388 214.931 2.97362 216.457 4.61037C218.095 6.49611 218.928 8.94968 218.777 11.4433C218.766 12.7962 218.423 14.1256 217.777 15.3144C217.132 16.5033 216.203 17.515 215.074 18.2605C214.322 18.7778 213.518 19.2146 212.675 19.5635C211.086 20.2309 210.657 20.0561 210.673 20.5487C210.689 21.0414 210.927 20.9937 211.562 21.6452C214.296 24.4419 218.872 29.7812 221.097 31.99C221.256 32.1489 221.335 32.1489 221.24 32.3555C221.033 32.8481 220.875 32.6416 220.35 32.6098C219.333 32.6098 210.53 32.6098 210.276 32.6098C209.735 32.4509 209.465 31.9583 208.178 30.4327C206.287 28.2239 201.281 21.82 200.693 21.4545C200.36 21.2479 200.328 21.2797 193.018 21.2797C191.763 21.2797 191.254 21.0414 191.238 22.2967C191.238 27.6042 191.238 32.0695 191.238 32.3555C191.238 32.6416 190.778 32.6416 190.73 32.6574H183.325C182.403 32.6574 182.594 31.5928 182.594 31.0684C182.514 14.2719 182.594 14.2719 182.594 14.1607C182.753 13.7475 182.912 13.8111 188.378 13.827C195.291 13.827 195.291 13.827 202.219 13.827C202.568 13.827 203.49 13.827 206.589 13.6522C208.178 13.5568 208.591 13.3979 209.242 12.3968C209.426 12.1408 209.555 11.8502 209.623 11.5425C209.69 11.235 209.694 10.9169 209.634 10.6076C209.575 10.2984 209.453 10.0045 209.277 9.74386C209.1 9.48321 208.872 9.26126 208.607 9.09154C207.018 8.21755 206.922 8.36055 187.027 8.297C182.689 8.297 182.626 8.297 182.26 8.01095C181.895 7.72493 182.26 6.89862 181.497 2.9895C181.195 1.49578 181.338 1.40043 181.497 1.20975C181.656 1.01906 181.783 1.00317 186.264 1.00317C203.108 1.00317 203.093 0.907824 207.177 1.1144L207.24 1.13029Z" fill="#676766"/>
<path fill-rule="evenodd" clip-rule="evenodd" d="M279.479 11.2685C282.521 11.4543 285.401 12.703 287.616 14.7962C292.383 19.5634 290.015 25.9197 289.204 27.2386C288.387 28.5087 287.361 29.6315 286.169 30.5598C285.041 31.3144 283.831 31.9382 282.562 32.419C279.96 33.3377 277.193 33.7004 274.442 33.4837C271.009 33.3506 267.708 32.126 265.019 29.9877C257.55 23.4089 258.265 7.48648 268.117 2.13131C270.587 0.877894 273.296 0.162955 276.063 0.0337398C278.663 -0.0951397 281.269 0.145621 283.802 0.748823C284.86 0.910836 285.892 1.21553 286.868 1.65459C288.362 2.22666 288.029 2.87818 286.868 5.38892C286.868 5.51603 286.789 5.50016 286.058 6.97796C285.47 8.23334 285.248 8.40812 284.469 8.1062C281.961 7.00554 279.224 6.53109 276.492 6.72372C275.009 6.84283 273.594 7.39547 272.424 8.3128C270.978 9.36158 269.818 12.3014 270.342 12.7781C270.866 13.2548 270.771 12.7781 272.043 12.2537C274.416 11.326 276.973 10.9616 279.511 11.189L279.479 11.2685ZM280.83 19.8971C280.528 19.5283 280.187 19.1927 279.813 18.896C278.527 18.0209 276.975 17.627 275.427 17.7837C272.344 18.1809 271.55 19.3727 271.359 19.5158C271.022 19.8206 270.75 20.1901 270.559 20.6024C270.368 21.0146 270.262 21.4611 270.247 21.9152C270.247 26.889 277.255 27.7153 280.194 24.9822C280.651 24.5509 281.001 24.0189 281.217 23.4286C281.432 22.8382 281.506 22.2057 281.434 21.5815C281.407 20.972 281.197 20.3847 280.83 19.8971Z" fill="white"/>
<path fill-rule="evenodd" clip-rule="evenodd" d="M24.4175 21.1684C24.4175 21.2637 25.1008 22.4396 25.1167 22.4396C25.2687 22.4718 25.4256 22.4718 25.5775 22.4396C25.6729 22.4396 26.1337 21.1525 26.9283 19.8018C27.0395 19.5952 27.0077 19.5793 28.3267 17.1321C32.0769 10.2197 36.272 1.73403 36.5739 1.36855C36.8759 1.00306 37.0347 1.13019 41.5317 0.955391C43.6452 0.955391 45.6475 0.621684 45.1707 1.9724C44.6305 3.56146 41.8495 8.32868 40.4036 11.3638C40.4036 11.3638 40.4036 11.3638 39.9746 12.1742C39.7202 12.6668 39.7681 12.6986 36.7964 18.5305C35.6999 20.6757 35.6999 20.6757 34.6353 22.8528C34.5399 23.0435 34.524 23.0435 33.3799 25.2523C32.6807 26.603 32.7125 26.6189 32.0292 27.9537C29.8362 32.2442 29.8045 32.2601 29.4708 32.4985C29.1371 32.7368 29.2006 32.6415 20.9693 32.6415C19.8092 32.6415 19.3802 32.7368 18.9829 32.0217C18.5856 31.3066 18.6492 31.3225 16.6311 27.9537C15.7889 26.5394 15.042 25.2364 13.3258 22.5191C13.2464 22.392 13.3258 22.392 12.4042 20.93C10.0205 17.0527 4.61773 8.72593 1.20122 3.18009C1.05821 2.87817 0.29545 1.82938 0.215997 1.71814C-0.197162 1.16197 -0.00647354 0.907716 0.692719 0.891829C1.39191 0.875937 1.55082 0.891829 11.4984 0.891829C12.6902 0.891829 12.7379 1.00306 13.3735 2.00418C14.168 3.25954 23.2734 19.182 24.497 21.073L24.4175 21.1684Z" fill="#676766"/>
<path fill-rule="evenodd" clip-rule="evenodd" d="M255.468 21.5657C255.755 23.1708 255.579 24.8244 254.96 26.3329C252.592 31.8628 247.015 32.6892 245.425 33.007C244.098 33.2858 242.746 33.4296 241.389 33.4361C238.423 33.5671 235.453 33.2401 232.586 32.4667C230.151 31.7906 227.816 30.7968 225.642 29.511C225.493 29.4159 225.386 29.268 225.341 29.097C225.297 28.9261 225.319 28.7447 225.403 28.5894C225.578 28.2874 225.61 28.2398 227.962 24.9822C229.042 23.5043 229.217 23.0276 229.9 23.3136C230.075 23.3136 230.059 23.3931 232.03 24.4419L232.697 24.7756C233.063 24.9027 233.301 24.9663 234.286 25.3477C236.474 26.0401 238.761 26.3729 241.056 26.3329C244.869 26.0786 245.998 25.1729 246.299 23.5679C246.903 20.2468 242.661 19.8495 242.422 19.8177C241.192 19.559 239.943 19.3943 238.688 19.3251C236.336 19.2139 236.336 19.3251 233.921 19.1503C233.619 19.1503 233.206 19.1503 233.126 18.5465C233.126 18.3875 233.126 15.4795 233.126 15.1458C233.206 14.1924 233.841 14.1129 235.494 12.7145C235.669 12.5715 237.083 11.348 237.687 10.9189C237.909 10.7441 239.117 9.82244 240.293 8.75775C241.151 7.99503 241.262 8.0268 241.246 7.72488C241.23 7.42296 241.04 7.43883 240.611 7.45473C239.822 7.49434 239.032 7.49434 238.243 7.45473C227.215 7.45473 227.12 7.66133 226.786 7.3435C226.69 7.24813 226.69 7.08926 226.595 6.99389V6.83498C226.595 4.75333 226.595 4.65796 226.595 2.40149C226.595 1.47983 226.452 1.09845 227.389 1.05078C227.564 1.05078 238.878 1.05078 239.864 1.05078C252.942 1.05078 252.973 1.05078 253.292 1.17791C253.609 1.30503 253.705 1.43215 253.561 4.35604C253.482 6.43773 253.037 6.4695 251.639 7.6772C250.24 8.88489 247.158 11.2367 246.872 11.4115C245.14 12.8099 245.028 12.6828 244.933 12.8417C244.838 13.0006 244.679 13.2072 244.933 13.4138C245.187 13.6203 245.918 13.5409 246.204 13.6044C252.402 15.0028 254.149 18.1968 254.658 19.2298C255.051 19.9532 255.269 20.7587 255.294 21.5816L255.468 21.5657Z" fill="white"/>
<path fill-rule="evenodd" clip-rule="evenodd" d="M54.3558 32.5937C53.7836 32.5937 48.9049 32.7844 47.2841 32.5937C46.4262 32.5143 46.617 31.5926 46.617 31.0047C46.617 19.2932 46.4421 1.98826 46.6965 1.33675C46.871 0.923589 47.0301 0.987151 52.3377 0.97126C54.9596 0.97126 55.4044 0.796464 55.5156 1.62278C55.5156 2.02005 55.5156 3.41843 55.5156 27.2863C55.6086 28.874 55.6086 30.4658 55.5156 32.0535C55.3407 32.6256 54.4512 32.562 54.3874 32.5779L54.3558 32.5937Z" fill="#676766"/>
<path fill-rule="evenodd" clip-rule="evenodd" d="M112.663 50.7046C112.828 50.7046 113.17 50.5503 113.559 51.394C113.947 52.238 113.876 52.2499 114.277 53.0698C114.277 53.177 115.102 55.0309 115.455 55.8512C115.549 56.0293 116.798 58.87 117.304 59.9634C117.658 60.7121 119.896 66.0367 120.284 66.7972C120.284 66.9159 121.462 69.5426 121.698 70.006C121.792 70.2557 121.91 70.6835 122.075 71.0641C122.075 71.1591 122.593 72.2524 122.617 72.2524C122.806 72.8112 122.464 72.7399 121.875 72.7281C118.93 72.6565 118.565 72.9418 118.341 72.288C118.341 72.1693 118.058 71.4444 117.846 71.0162C117.234 69.8279 116.822 68.3425 116.433 68.1877C116.221 68.1046 114.572 68.1877 107.669 68.1877C106.208 68.1877 106.043 68.0928 105.725 68.7702C105.331 69.9949 104.793 71.1682 104.123 72.2643C103.935 72.4546 103.876 72.9655 100.165 72.7637C100.165 72.7637 99.6349 72.7637 99.7291 72.3118C99.8237 71.8603 99.8941 72.11 101.001 69.3048C101.096 69.0793 101.131 69.103 102.179 66.5238C102.285 66.286 102.297 66.2982 103.487 63.5287C103.487 63.4219 103.487 63.4219 104.088 62.1975C108.434 52.3567 108.799 50.9781 109.106 50.8119C110.276 50.6417 111.461 50.6061 112.64 50.7046H112.663ZM108.576 61.9126C108.517 62.0551 108.576 62.0551 107.834 63.6834C107.75 63.8567 107.691 64.0403 107.657 64.2299C107.657 64.5271 108.105 64.5389 108.152 64.5389C108.611 64.5389 108.611 64.5389 113.912 64.5389H114.725C115.054 64.444 114.913 64.0756 114.901 64.0281C114.889 63.9806 114.901 63.945 114.371 62.8394C114.301 62.6732 114.254 62.6851 113.464 60.7714C112.534 58.5254 111.721 57.0039 111.509 56.457C111.427 56.2433 111.427 56.2077 111.203 56.2077C110.979 56.2077 111.002 56.3146 110.814 56.778C110.625 57.2417 110.625 57.1463 108.847 61.532C108.781 61.7065 108.706 61.877 108.623 62.0432L108.576 61.9126Z" fill="white"/>
<path fill-rule="evenodd" clip-rule="evenodd" d="M220.989 57.7399C220.894 57.7399 220.906 57.8111 220.811 57.8467C220.753 57.8626 220.691 57.8626 220.633 57.8467C220.633 57.8467 220.633 58.2504 220.633 59.0343C220.633 63.5813 220.633 63.5694 220.633 68.1165C220.633 72.0819 220.633 72.1412 220.467 72.2837C220.159 72.3446 219.844 72.3727 219.53 72.3668C218.712 72.4487 217.887 72.4246 217.075 72.2956C216.921 72.2125 216.826 72.1531 216.873 70.135C216.873 68.4252 216.873 68.4251 216.873 63.5694C216.873 63.4982 216.873 63.4982 216.873 62.5723C216.873 52.7773 216.767 50.6995 216.98 50.4383C217.194 50.1772 217.17 50.2603 219.518 50.2959C220.265 50.2959 220.242 50.6401 220.965 51.4834C221.321 51.9107 223.621 54.8904 223.847 55.1876C227.499 59.9365 227.582 59.8296 230.547 63.8306C230.832 64.1986 231.365 65.1958 231.425 65.1958C231.484 65.1958 231.567 65.1127 231.638 65.0771C231.71 65.0415 231.733 65.0771 231.745 65.0771C231.757 65.0771 231.745 64.9584 231.745 64.8871C231.539 63.2058 231.484 61.509 231.579 59.8178C231.579 50.6758 231.579 50.6401 231.662 50.4858C231.745 50.3315 232.172 50.3196 234.176 50.3196C235.006 50.3196 235.362 50.1653 235.362 50.9963C235.362 51.115 235.362 51.115 235.445 69.1493C235.445 72.0225 235.445 72.07 235.267 72.2599C235.089 72.4499 235.089 72.4143 232.896 72.3668C232.172 72.3668 232.196 72.1294 231.188 70.871C231.081 70.7404 230.263 69.6839 230.191 69.6008C228.52 67.4873 228.555 67.4636 226.871 65.3501L224.499 62.3705C223.206 60.8707 222.017 59.2839 220.941 57.6212L220.989 57.7399Z" fill="#676766"/>
<path fill-rule="evenodd" clip-rule="evenodd" d="M206.515 50.6769H207.259C207.678 50.8079 207.631 50.9032 207.642 51.3195C207.642 53.9023 207.642 53.926 207.523 54.0926C207.403 54.2592 207.283 54.1999 200.4 54.2355H198.362C197.681 54.1781 196.996 54.2062 196.323 54.319C196.083 54.5093 196.131 54.6403 196.143 57.8894C196.143 58.1154 196.143 59.3175 196.143 59.3769C196.299 59.7817 196.383 59.7223 196.815 59.7223C205.292 59.7223 205.328 59.6507 205.544 59.7936C205.76 59.9364 205.796 60.0911 205.784 62.4357C205.784 62.9355 205.784 63.1021 205.532 63.2928C205.28 63.4831 205.256 63.2928 197.067 63.3996C196.575 63.3996 196.395 63.3996 196.192 63.626C195.987 63.8519 196.107 63.757 196.119 68.2558C196.119 68.9459 196.119 69.1599 196.815 69.1599C202.45 69.2316 207.27 69.1599 207.523 69.2316C207.774 69.3028 207.762 69.8148 207.726 71.7902C207.726 72.5282 207.726 72.7545 207.007 72.7783C205.88 72.7783 203.194 72.8495 192.99 72.7783C192.707 72.7787 192.426 72.7466 192.151 72.6829C191.863 72.4688 191.923 72.421 191.923 72.0522C191.923 71.9212 191.923 51.4268 191.923 51.3195C191.923 50.5697 192.21 50.6532 192.966 50.6532H206.467L206.515 50.6769Z" fill="#676766"/>
<path fill-rule="evenodd" clip-rule="evenodd" d="M148.09 50.6928C155.955 50.6928 156.027 50.6928 156.183 50.8915C156.34 51.0905 156.316 51.0786 156.268 53.5597C156.268 54.3788 155.726 54.2031 154.738 54.2031C144.887 54.2031 144.887 54.2031 144.742 54.2031C144.598 54.2031 144.405 54.7179 144.405 54.7646C144.405 55.2913 144.405 57.1753 144.405 58.7549C144.405 59.6093 144.682 59.5507 145.609 59.574C148.921 59.574 153.69 59.574 153.787 59.574C154.232 59.6912 154.184 59.7964 154.208 60.2412C154.232 60.686 154.208 62.3005 154.208 62.4761C154.208 63.3186 153.871 63.19 153.004 63.2015C150.217 63.1085 147.427 63.1556 144.646 63.342C144.465 63.4591 144.453 63.9153 144.453 63.9624C144.453 66.0802 144.453 66.0802 144.453 68.1981C144.453 69.0057 144.778 68.8652 145.658 68.8652H155.376C156.051 68.8652 156.268 68.7952 156.304 69.4386V71.9193C156.304 72.5397 155.726 72.4108 154.1 72.3874C149.788 72.3874 141.057 72.3874 140.852 72.3874C140.395 72.3174 140.467 72.0598 140.503 69.7077C140.587 62.4995 140.503 62.4995 140.503 52.0616C140.503 51.6872 140.503 51.6872 140.503 51.3129C140.503 50.5052 140.828 50.6576 141.707 50.6691C144.586 50.6691 145.32 50.6691 148.367 50.6691L148.09 50.6928Z" fill="#676766"/>
<path fill-rule="evenodd" clip-rule="evenodd" d="M59.4901 50.6511C61.1299 50.6511 61.3096 50.6511 61.5367 50.6511C62.2308 50.7223 62.0634 51.1243 62.0393 52.0348C62.0393 54.1404 62.3388 63.6259 61.824 65.8612C61.6119 67.0788 61.1117 68.2295 60.3639 69.22C59.8827 69.9208 59.2689 70.523 58.5567 70.9939C57.6877 71.6274 56.6988 72.0821 55.6486 72.3306C53.5913 72.8818 51.4336 72.9586 49.3415 72.5554C48.4725 72.3013 47.6308 71.9646 46.8279 71.5499C42.0407 68.7942 42.3398 64.0516 42.3521 61.5915C42.3521 50.9466 42.292 50.9466 42.4479 50.7931C42.6034 50.6392 42.675 50.6273 45.7627 50.6748C46.2055 50.6748 46.3013 50.6748 46.4212 51.0531C46.4928 51.2779 46.3254 61.2722 46.5288 63.1051C46.7682 65.2225 47.0915 66.8073 48.4436 67.9901C50.4304 69.7285 53.877 69.1729 54.9423 68.6877C55.6522 68.4519 56.2572 67.9794 56.6537 67.3514C57.0799 66.9237 57.4166 66.4176 57.6446 65.8616C57.8725 65.3056 57.9872 64.7105 57.9821 64.1106C58.3774 61.6742 58.066 51.3016 58.1257 51.0179C58.1859 50.7338 59.0236 50.6629 59.4901 50.6629V50.6511Z" fill="white"/>
<path fill-rule="evenodd" clip-rule="evenodd" d="M84.919 65.7887C84.6915 65.2707 84.572 64.5845 82.2144 63.7658C81.6449 63.5256 81.0617 63.3206 80.4673 63.1521C80.3237 63.1521 80.3356 63.0919 78.708 62.5621C77.196 62.1711 75.8055 61.4054 74.6631 60.3346C74.1566 59.8598 73.7708 59.2694 73.5381 58.6133C73.2287 57.7962 73.102 56.9205 73.1673 56.0487C73.3434 54.3848 74.1649 52.8578 75.4529 51.7989C77.2332 50.3973 79.4694 49.7143 81.7237 49.8848C84.1909 49.9406 86.583 50.751 88.5809 52.2084C89.1673 52.6057 88.916 52.9547 87.9588 54.4236C87.9588 54.4956 87.9588 54.4236 87.3364 55.2902C87.0131 55.748 86.5105 55.2182 86.0559 54.9894C84.3013 53.906 82.2373 53.4442 80.1919 53.6773C76.7097 54.1106 77.4275 57.1084 78.1695 57.5659C81.6758 59.6968 88.569 60.2868 89.2512 64.7891C89.5456 65.975 89.4744 67.2231 89.047 68.3671C88.6193 69.5111 87.8559 70.4972 86.8576 71.194C85.4825 72.0954 83.9001 72.6261 82.2622 72.7353C79.372 73.0269 76.4604 72.4622 73.8851 71.1097C73.0834 70.6645 71.5877 69.6171 71.6237 69.0873C72.0495 68.3556 72.5378 67.6627 73.0834 67.0165C73.5381 66.3545 73.6818 66.1017 74.2801 66.607C74.7229 66.9683 78.0978 69.7857 81.9512 69.2198C82.9619 69.1142 83.8902 68.6124 84.536 67.823C84.8422 67.472 85.0195 67.0256 85.0385 66.5591C85.0397 66.309 84.9993 66.0609 84.919 65.8247V65.7887Z" fill="white"/>
<path fill-rule="evenodd" clip-rule="evenodd" d="M273.238 49.8781C274.832 49.7792 276.427 50.0677 277.883 50.719C278.753 51.1127 279.594 51.5662 280.4 52.0759C280.896 52.4122 280.751 52.5563 280.4 53.0367C279.118 54.8506 279.19 54.8624 279.033 55.0184C278.634 55.5589 278.343 55.1865 277.823 54.8624C276.506 54.0449 275.014 53.5471 273.468 53.409C270.346 53.337 268.29 55.8113 270.733 57.793C272.5 59.2223 277.775 59.6667 280.013 62.3927C280.903 63.492 281.375 64.8667 281.346 66.2766C281.317 67.6865 280.79 69.041 279.856 70.1035C277.23 73.0582 273.431 72.8417 271.931 72.7816C269.368 72.5509 266.931 71.5731 264.926 69.9713C264.382 69.5392 264.152 69.479 264.49 68.8784C264.49 68.8784 265.156 67.9057 265.216 67.8214C265.93 66.8967 266.063 66.3803 266.56 66.5124C267.186 67.0292 267.863 67.4839 268.58 67.8697C269.772 68.5361 271.082 68.9682 272.439 69.1427C273.469 69.3239 274.53 69.1985 275.488 68.7822C276.214 68.3861 276.178 68.3378 276.698 67.6655C278.815 64.7828 273.782 63.3899 272.959 63.1014C271.256 62.6266 269.627 61.9195 268.12 60.9999C267.464 60.559 266.909 59.9857 266.492 59.3173C266.075 58.6486 265.805 57.8999 265.7 57.1203C265.524 56.0076 265.68 54.8676 266.148 53.8415C267.055 51.6798 269.657 49.9984 273.298 49.8781H273.238Z" fill="#676766"/>
<path fill-rule="evenodd" clip-rule="evenodd" d="M173.397 66.7438L173.601 66.8387C173.601 66.8387 173.71 66.9341 173.782 66.9218C173.854 66.91 173.902 66.4941 174.118 66.007C174.335 65.5194 178.929 53.9189 179.639 52.0884C180.084 50.9001 180.108 50.7928 180.517 50.7216C180.589 50.7216 182.922 50.7216 183.319 50.7216C184.125 50.7216 184.63 50.6266 184.293 51.3635C183.487 53.0753 182.874 55.0245 182.249 56.4032C181.9 57.1875 181.948 57.1993 181.623 57.984C181.623 58.1265 181.623 58.1265 180.89 59.7667C180.797 60.0959 180.681 60.4176 180.541 60.7294C179.266 63.8436 179.182 64.0098 179.061 64.2951C178.785 64.9132 178.845 64.937 178.556 65.5551C178.111 66.4941 175.838 72.4253 175.67 72.5915C175.501 72.7581 175.177 72.8293 172.843 72.8056C171.965 72.8056 171.845 72.8056 171.532 72.0925C171.323 71.4859 171.082 70.8912 170.811 70.3095C170.727 70.131 170.727 70.131 169.86 68.0156C169.788 67.849 169.175 66.3635 169.019 66.0188C168.526 64.9607 164.629 55.1076 162.933 51.6131C162.765 51.2685 162.259 50.6504 163.137 50.6504C166.745 50.6504 166.818 50.7454 167.106 51.1973C167.756 52.1956 172.747 64.6995 173.216 66.2325C173.216 66.2325 173.216 66.2325 173.397 66.7556V66.7438Z" fill="#676766"/>
<path fill-rule="evenodd" clip-rule="evenodd" d="M253.288 66.2329C253.288 71.2319 253.288 71.2319 253.288 71.7C253.288 72.5195 252.965 72.3909 252.089 72.3909C249.596 72.3909 249.308 72.5662 249.224 71.9576C249.224 71.8286 249.224 54.6308 249.224 54.5608C249.104 54.1508 249.008 54.186 248.564 54.186C243.061 54.186 242.749 54.4318 242.569 53.8232C242.569 53.7175 242.569 51.7156 242.569 51.5637C242.569 50.8961 242.509 50.6856 243.193 50.6504C244.296 50.6504 257.953 50.6504 259.235 50.6504C259.775 50.6504 259.967 50.6504 259.979 51.3061C259.979 53.7998 259.979 53.8113 259.907 53.987C259.835 54.1627 258.384 54.1041 255.663 54.186C254.904 54.1219 254.14 54.1694 253.396 54.3265C253.24 54.467 253.265 54.5137 253.252 62.0064C253.252 64.1139 253.252 64.1139 253.252 66.2329H253.288Z" fill="#676766"/>
</svg>
