<svg width="350" height="64" viewBox="0 0 350 64" fill="none" xmlns="http://www.w3.org/2000/svg">
<path d="M90.8102 0L92.7611 0.0459945L92.8074 63.7934L2.35173 63.7867L0 63.7827L0.0722928 0.0409663C19.5884 0.258595 39.174 -0.0631555 58.6971 0.0766673C69.3709 0.1531 80.138 0.133186 90.8102 0Z" fill="white"/>
<path d="M60.1529 13.9326C63.2485 13.6331 66.3599 14.3155 69.0464 15.8834C87.1559 26.3712 71.897 54.9678 53.5216 43.482C52.6293 42.7966 51.7576 41.972 50.9183 41.2118C51.1787 45.0478 50.91 49.0259 51.1332 52.8792C51.2178 54.3453 51.3389 55.2404 49.8736 55.8993C49.1606 55.8874 49.0901 55.9234 48.5583 55.5067C48.3371 54.2278 48.3858 52.8266 48.3945 51.5243C48.4598 41.8746 48.2853 32.2105 48.5072 22.5651C48.5207 21.9812 48.6742 21.5195 48.9734 21.014C51.6135 16.5534 54.9434 14.5208 60.1529 13.9326ZM66.9582 17.5894C65.0964 16.7469 63.0613 16.3581 61.0203 16.4549C57.7561 16.7547 55.0835 17.5539 52.8802 20.1689C52.0686 21.1149 51.4877 22.2361 51.1826 23.4447C50.6915 25.4688 50.9171 35.0838 51.0873 37.4691C54.5536 42.4405 58.5799 44.2544 64.6465 43.2003C76.9597 39.0065 77.7476 22.6025 66.9582 17.5894Z" fill="black"/>
<path d="M26.3269 13.9275C30.8273 13.3455 35.3715 14.6104 38.9245 17.4338C38.488 18.0746 37.9438 18.7796 37.4794 19.4138C32.9352 15.9322 23.9034 14.871 20.166 19.0162C13.8765 25.9923 25.9284 28.0324 29.7745 28.6672C34.3379 29.4206 40.6307 31.4943 40.8674 36.6396C41.2017 43.9188 34.0763 45.7715 28.1285 45.9401C23.0483 45.87 19.4223 44.9049 15.1887 42.0997L16.5506 39.972C21.855 43.4127 31.5966 45.563 37.0937 40.4884C39.0657 38.6681 38.5946 35.2503 36.0537 33.5912C30.3212 29.8483 18.1384 32.0591 16.1397 23.8329C15.0997 17.3878 20.858 14.641 26.3269 13.9275Z" fill="black"/>
<path d="M111.777 1.25732L115.886 1.25893L115.888 31.2901L167.247 31.2643C167.461 21.5433 167.275 11.0623 167.308 1.28731L171.252 1.26007L171.277 60.1334L171.249 62.2057L167.223 62.2931C167.469 53.5128 167.274 44.0416 167.319 35.1811C150.218 35.018 133.01 35.3939 115.917 35.1227L115.869 62.3477L111.773 62.3497L111.777 1.25732Z" fill="white"/>
<path d="M296.806 1.21973L300.491 1.22041L300.555 5.36679L300.534 23.513C300.525 35.7511 301.257 45.0436 291.931 54.9984C286.946 60.3202 279.82 63.5029 272.476 63.5278C264.991 63.5029 257.826 60.4773 252.585 55.1278C242.72 45.1928 243.741 34.3321 243.738 21.7622L243.747 1.27785L247.57 1.25794L247.554 22.9801C247.543 34.0364 246.648 43.6729 255.216 52.3812C259.668 56.9547 265.75 59.5747 272.131 59.6661C278.538 59.6942 284.32 57.2104 288.824 52.67C292.086 49.4138 294.431 45.3546 295.621 40.9017C297.222 34.9739 296.81 26.7706 296.806 20.4452V1.21973Z" fill="white"/>
<path d="M210.515 0.316974L213.195 0.314697C221.113 15.9126 228.242 32.0455 235.924 47.7682C238.095 52.208 240.277 56.6645 242.341 61.1522C241.121 61.7988 239.948 62.2942 238.685 62.8395L220.924 25.1674C218.05 19.1104 215.083 12.5527 212.047 6.60832L211.873 6.42981C211.176 6.86667 186.841 58.6212 184.547 62.9337C183.392 62.3717 182.193 61.6971 181.054 61.0821C183.694 56.0919 186.164 50.3981 188.676 45.3022C196.011 30.4235 202.901 15.0354 210.515 0.316974Z" fill="white"/>
<path d="M348.459 0.162109L348.967 0.269211C349.454 1.25392 349.68 2.78717 349.9 3.91193C339.482 6.95528 335.266 16.9092 330.901 25.9288L324.649 39.0099C320.16 48.2811 315.144 59.9489 304.881 63.5126L304.433 63.4062C303.968 62.5886 303.675 60.7953 303.463 59.793C321.764 54.1427 326.575 5.32616 348.459 0.162109Z" fill="white"/>
</svg>
