<?xml version="1.0" encoding="utf-8"?>
<!-- Generator: Adobe Illustrator 25.0.0, SVG Export Plug-In . SVG Version: 6.00 Build 0)  -->
<svg version="1.1" id="Camada_1" xmlns="http://www.w3.org/2000/svg" xmlns:xlink="http://www.w3.org/1999/xlink" x="0px" y="0px"
	 viewBox="0 0 1279 304" style="enable-background:new 0 0 1279 304;" xml:space="preserve">
<style type="text/css">
	.st0{fill-rule:evenodd;clip-rule:evenodd;fill:#299A50;}
	.st1{fill:#FFFFFF;}
</style>
<path class="st0" d="M436-537.9c0,0,4.1,5.9,8.9,11.9c4.8,6,14.8,18.8,22.2,28.3c7.4,9.5,19,24.3,25.7,32.9
	c10.2,13,11.6,15.2,12.6,16.7c-1.8,2.3-30.2,34.7-51.3,59.7c-10,11.8-19.1,23.2-19.1,23.2s9.3-0.1,19.6,0l18.8-0.1l3-3.2
	c1.7-1.9,11.7-13.6,22.1-26c34.1-40.7,41-48.8,41.3-48.5c0.2,0.2-2.5,6.3-5.8,13.6c-3.4,7.3-9.3,20.3-13.2,28.8
	c-3.9,8.5-9,19.6-11.4,24.6c-2.4,5-4.5,10.8-4.5,10.8s6.2,0,12.2,0c10.2,0,12.4,0,12.4,0s9.2-21.2,18.7-41.8
	c9.5-20.6,17.4-37.3,17.6-37.1c0.2,0.2-3,17.7-7.1,39c-4.1,21.3-7.4,39.9-7.4,39.9l14.3,0c0,0,15.6-79.5,15.6-83.3
	c0-2-2.5-17.3-5.4-34.1c-3-16.8-6.4-36.2-7.6-43.1l-2.2-12.7l-7.3,0c-4,0-7.3,0.4-7.3,0.9c0,0.5,0.5,3.4,1,6.5
	c5.1,27.5,13.9,77.7,13.6,78c-0.3,0.3-13.8-30.5-31.1-70.9c-2.8-6.5-5.9-13.9-5.9-13.9l-23.8-0.1c0,0,7.9,19.3,17.4,41.4
	c9.5,22.1,17.6,41.1,18,42.2c0.9,2.8-1.5-0.2-29.5-36.2c-13.3-17-27.2-34.8-31-39.5l-6.5-7.9h-18.8C444.4-537.9,436-537.9,436-537.9
	z"/>
<rect x="576.9" y="-537.7" class="st1" width="19" height="171.6"/>
<polygon class="st1" points="838.9,-518.5 796,-518.5 796,-366.1 776.8,-366.1 776.8,-518.5 734.1,-518.5 734.1,-537.7 
	838.9,-537.7 "/>
<polygon class="st1" points="1275.7,-518.5 1192.6,-518.5 1192.6,-461.4 1263.7,-461.4 1263.7,-442.4 1192.6,-442.4 1192.6,-385.3 
	1275.7,-385.3 1275.7,-366.1 1173.6,-366.1 1173.6,-537.7 1275.7,-537.7 "/>
<path class="st1" d="M301.5-511.8c32.9-33.4,86.3-34.7,120.2-2.5l-13,13.7c-26.4-24.9-68.1-24-93.6,2c-25.4,25.9-25.2,67.6,0.2,93.6
	c25.4,25.7,67.1,26.4,93.3,1.5l13.2,13.7c-33.9,32.2-87.3,31.4-120-2C269.1-425,268.9-478.4,301.5-511.8z"/>
<path class="st1" d="M1016.1-511.8c32.9-33.4,86.3-34.7,120.3-2.5l-13,13.7c-26.2-24.4-67.1-24-92.6,1
	c-25.7,25.2-26.7,66.1-2.5,92.6c24,26.4,64.9,29.2,92.3,6v-41.4h-42.9v-19h61.9v68.9l-3,2.7c-33.9,32.2-87.3,31.4-120.3-2
	C983.7-425,983.5-478.4,1016.1-511.8z"/>
<path class="st1" d="M676.2-537.5c17.2,0,33.2,9.7,40.7,25.4l-17,8.5c-4.3-8.9-12.8-13.1-22.5-14.6c-0.8-0.1-1.5-0.2-2.3-0.2H668
	c-12.7,0-23.5,9-25.7,21.5c-2.5,12.5,4.7,24.9,16.5,29.4l33.4,12.5c17.5,6.7,29.2,23.5,29.4,42.4v1c-0.2,24.9-20.5,45.2-45.4,45.2
	H667c-21.5-0.3-39.9-16.1-43.6-37.4l18.7-3.2c2.2,12.5,13.2,21.7,25.9,21.7h8.2c14.5,0,26.2-11.7,26.2-26.2v-1
	c0-11-6.7-20.7-17-24.7L652-449.7c-20.5-7.7-32.4-28.9-28.7-50.4c4-21.7,22.7-37.4,44.7-37.4H676.2z"/>
<path class="st1" d="M203-540.2l-67.6,174.1h20.2l13-33.4h68.4l13,33.4h20.2L203-540.2z M176.1-418.5l26.9-69.1l26.7,69.1H176.1z"/>
<path class="st1" d="M912.3-540.2l-67.6,174.1h20.2l13-33.4h68.4l13,33.4h20.2L912.3-540.2z M885.3-418.5l26.9-69.1l26.7,69.1H885.3
	z"/>
<path class="st1" d="M90.3-457.8c12.8-14,16-34.1,8.6-51.5c-7.7-17.2-24.7-28.4-43.7-28.4H-1.9v171.6H72c22.7,0,42.2-16.2,46.7-38.4
	C123.1-426.7,111.2-449.1,90.3-457.8z M17.1-518.5h38.2c15.7,0,28.4,12.7,28.4,28.4c0,15.7-12.7,28.7-28.4,28.7H17.1V-518.5z
	 M72-385.3H17.1v-57.1H72c15.7,0,28.4,13,28.4,28.7C100.4-398,87.7-385.3,72-385.3z"/>
<path class="st1" d="M218.9-294.2c5.9-6.3,13.2-9.4,22-9.4c10.1,0,18,3,23.5,8.9l-2.9,3.2c-2.1-2.4-5.1-4.4-8.8-5.9
	c-3.6-1.6-7.6-2.4-11.9-2.4c-7.6,0-14,2.8-19.2,8.4c-5.2,5.5-7.7,12.2-7.7,20.1c0,8,2.5,14.4,7.5,19.4c5,4.9,11.2,7.4,18.6,7.4
	c6.7,0,12.4-2.4,17.1-7.1c4.8-4.8,7.4-10.9,7.8-18.4h-23.1v-3.6H276v3.6h-7c-0.4,8.7-3.4,15.8-8.9,21.3c-5.5,5.4-12.2,8.1-20.1,8.1
	c-8.6,0-15.7-2.8-21.4-8.5c-5.7-5.7-8.6-13.1-8.6-22.1C210-280.3,213-287.9,218.9-294.2z"/>
<path class="st1" d="M473-240.6v-63h26.7c6,0,11,1.6,14.9,5c3.9,3.2,5.8,7.5,5.8,12.8c0,4.7-1.6,8.7-4.7,12c-3.1,3.2-7.1,5.2-12.1,6
	l17.3,27.3h-4.6l-17-27l-22.3,0.1v26.9H473z M499.2-271.1c5,0,9-1.3,12.2-4c3.2-2.7,4.8-6.2,4.8-10.5c0-4.3-1.6-7.7-4.8-10.3
	c-3.2-2.6-7.3-3.9-12.3-3.9h-22.1v28.6H499.2z"/>
<path class="st1" d="M726.8-295.6c5.9-6,13.2-9,22.2-9c9,0,16.4,3,22.3,9c5.9,6,8.8,13.7,8.8,23s-2.9,17-8.8,23
	c-5.9,6-13.3,8.9-22.3,8.9c-8.9,0-16.3-3-22.2-8.9c-5.9-6-8.8-13.7-8.8-23S720.9-289.6,726.8-295.6z M729.7-252.5
	c5,5.3,11.4,8,19.2,8c7.8,0,14.2-2.6,19.3-7.9c5.1-5.3,7.6-12,7.6-20.2c0-8.2-2.5-14.9-7.6-20.2c-5.1-5.3-11.5-8-19.3-8
	c-7.7,0-14.2,2.7-19.2,8c-5.1,5.3-7.6,12-7.6,20.2C722.1-264.4,724.6-257.7,729.7-252.5z"/>
<path class="st1" d="M977-303.7h4.4l17.6,50.8h0.5l19.9-51.8h1.2l19.9,51.8h0.6l17.6-50.8h4.4l-21.6,62h-1.2l-20-51.5h-0.6
	l-20.1,51.5h-1.1L977-303.7z"/>
</svg>
