<svg width="313" height="62" viewBox="0 0 313 62" fill="none" xmlns="http://www.w3.org/2000/svg">
<path fill-rule="evenodd" clip-rule="evenodd" d="M106.518 1.36305C106.522 1.44731 107.486 2.48947 108.66 3.67934C109.835 4.86922 112.283 7.38341 114.101 9.26636C115.919 11.1495 118.752 14.0722 120.397 15.7613C122.903 18.3338 123.34 18.8831 123.09 19.1458C122.658 19.601 116.097 25.9342 110.951 30.8646C108.509 33.204 106.511 35.1863 106.511 35.2699C106.511 35.3534 108.564 35.4358 111.074 35.4527L115.637 35.4835L116.399 34.8102C116.818 34.4399 119.25 32.1224 121.803 29.66C130.143 21.6166 131.84 20.0052 131.911 20.0642C131.949 20.0962 131.306 21.3071 130.482 22.7548C129.657 24.2024 128.21 26.7641 127.267 28.4473C126.323 30.1305 125.064 32.315 124.47 33.3019C123.875 34.2886 123.454 35.1838 123.533 35.2911C123.613 35.3985 124.881 35.4862 126.351 35.4862C128.855 35.4862 129.046 35.4572 129.377 35.0271C129.571 34.7747 131.627 31.2376 133.947 27.1671C136.266 23.0966 138.201 19.7975 138.247 19.8359C138.293 19.874 137.519 23.3422 136.526 27.5427C135.533 31.7433 134.77 35.2489 134.831 35.3332C134.992 35.5588 138.041 35.5194 138.211 35.2895C138.465 34.9472 142.008 19.7071 142.007 18.9602C142.007 18.5674 141.403 15.5377 140.667 12.2274C139.929 8.91707 139.084 5.08405 138.788 3.70934L138.251 1.21003H136.459C135.473 1.21003 134.667 1.2894 134.667 1.38631C134.667 1.48302 134.782 2.05694 134.922 2.66147C136.184 8.09016 138.331 18.0149 138.256 18.077C138.176 18.1441 134.859 12.0446 130.638 4.06638C129.956 2.77592 129.309 1.60543 129.202 1.46506C128.975 1.16902 123.404 1.09272 123.404 1.3857C123.404 1.4822 125.313 5.1318 127.646 9.49568C129.979 13.8596 131.961 17.6136 132.051 17.838C132.277 18.4001 131.676 17.8072 124.811 10.6972C121.56 7.33078 118.145 3.8191 117.223 2.89324L115.545 1.21003H111.028C108.544 1.21003 106.514 1.27879 106.518 1.36305Z" fill="#299A50"/>
<path d="M13.9871 0.508866C18.6291 0.508866 22.7824 2.7994 24.6759 6.31142C26.5005 9.85924 25.7206 13.9619 22.5781 16.8109C27.684 18.6023 30.5978 23.1709 29.5013 27.6892C28.4018 32.2192 23.6376 35.5278 18.0794 35.5278H0V0.508866H13.9871ZM66.5963 35.5278H61.649L58.4729 28.7071H41.7372L38.5611 35.5278H33.6136L50.1662 0L66.5963 35.5278ZM146.349 0.508866V35.5278H141.707V0.508866H146.349ZM205.858 4.42817H195.353V35.5278H190.649V4.42817H180.205V0.508866H205.858V4.42817ZM240.242 35.5278H235.294L232.118 28.7071H215.382L212.206 35.5278C212.206 35.5278 209.177 35.7596 207.259 35.5278C192.063 33.6912 223.811 0 223.811 0L240.242 35.5278ZM312.789 4.42817H292.449V16.0841H309.857V19.9526H292.449V31.6085H312.789V35.5278H287.808V0.508866H312.789V4.42817ZM74.2905 5.80255C82.353 -1.01796 95.424 -1.27253 103.731 5.29348L100.554 8.09305C94.0801 3.00311 83.8798 3.20657 77.6497 8.5001C71.4197 13.7936 71.4809 22.2938 77.7109 27.5874C83.941 32.83 94.1411 32.9827 100.554 27.8928L103.792 30.6922C95.485 37.2582 82.4141 37.1056 74.4127 30.2851C66.3502 23.5155 66.2892 12.6231 74.2905 5.80255ZM249.247 5.80255C257.309 -1.01796 270.38 -1.27253 278.687 5.29348L275.511 8.09305C269.098 3.10491 259.081 3.20654 252.85 8.29647C246.559 13.4373 246.315 21.7848 252.24 27.1801C258.103 32.5755 268.121 33.1355 274.839 28.4019V19.9526H264.334V16.0841H279.481V30.1323L278.748 30.6922C270.441 37.2582 257.371 37.1056 249.308 30.2851C241.307 23.5155 241.246 12.6231 249.247 5.80255ZM166.028 0.559872C170.243 0.559905 174.152 2.54494 175.984 5.75154L171.831 7.48217C170.731 5.59892 168.471 4.42831 166.028 4.47918H164.012C160.897 4.4792 158.271 6.31145 157.721 8.85635C157.111 11.4013 158.882 13.9463 161.753 14.8625L169.937 17.4075C174.213 18.7817 177.083 22.192 177.145 26.0604V26.264C177.083 31.3539 172.136 35.4767 166.028 35.4768H163.761C158.493 35.4257 153.981 32.201 153.079 27.842L157.66 27.1801C158.21 29.7251 160.897 31.6085 164.012 31.6085H166.028C169.571 31.6084 172.441 29.2161 172.441 26.264V26.0604C172.441 23.8208 170.792 21.8357 168.288 21.0213L160.104 18.4764C155.095 16.8985 152.163 12.572 153.079 8.19466C154.057 3.76647 158.638 0.559896 164.012 0.559872H166.028ZM4.64196 31.6085H18.0794C21.9274 31.6085 25.0424 29.0126 25.0424 25.8059C25.0424 22.5993 21.9274 19.9526 18.0794 19.9526H4.64196V31.6085ZM43.5696 24.8388H56.7015L50.1662 10.7398L43.5696 24.8388ZM217.215 24.8388H230.346L223.811 10.7398L217.215 24.8388ZM4.64196 16.0841H13.9871C17.8351 16.0841 20.9502 13.4374 20.9502 10.2307C20.9502 7.02406 17.8351 4.42817 13.9871 4.42817H4.64196V16.0841Z" fill="white"/>
<path d="M53.3696 51.0665C54.8154 49.7865 56.6084 49.1465 58.7488 49.1465C61.2293 49.1465 63.1499 49.7509 64.5106 50.9598L63.809 51.6176C63.2846 51.1317 62.5687 50.7287 61.6616 50.4087C60.7686 50.0887 59.7977 49.9287 58.7488 49.9287C56.8919 49.9287 55.3257 50.4976 54.05 51.6354C52.7884 52.7614 52.1577 54.1303 52.1577 55.7422C52.1577 57.3659 52.7672 58.6874 53.9862 59.7067C55.2052 60.7141 56.7218 61.2178 58.5361 61.2178C60.1662 61.2178 61.5624 60.7319 62.7247 59.76C63.9011 58.7763 64.539 57.5259 64.6382 56.0088H58.9826V55.2799H67.3384V56.0088H65.6162C65.517 57.7866 64.7941 59.2326 63.4476 60.3467C62.101 61.4489 60.4639 62 58.5361 62C56.4383 62 54.6878 61.4193 53.2845 60.2578C51.8813 59.0963 51.1797 57.5911 51.1797 55.7422C51.1797 53.9051 51.9096 52.3465 53.3696 51.0665Z" fill="white"/>
<path d="M115.57 62V49.1465H122.116C123.595 49.1465 124.81 49.4831 125.762 50.1564C126.714 50.8174 127.19 51.6866 127.19 52.7638C127.19 53.7187 126.809 54.5327 126.048 55.206C125.286 55.8671 124.298 56.2771 123.082 56.4363L127.322 62H126.201L122.028 56.4914L116.58 56.5097V62H115.57ZM121.984 55.7936C123.199 55.7936 124.195 55.5243 124.971 54.9857C125.762 54.4348 126.157 53.7187 126.157 52.8373C126.157 51.9681 125.769 51.2704 124.993 50.744C124.217 50.2176 123.214 49.9544 121.984 49.9544H116.58V55.7936H121.984Z" fill="white"/>
<path d="M177.703 50.7847C179.136 49.5566 180.946 48.9425 183.132 48.9425C185.333 48.9425 187.149 49.5566 188.583 50.7847C190.016 52.0128 190.733 53.578 190.733 55.4803C190.733 57.3827 190.016 58.9479 188.583 60.176C187.149 61.3921 185.333 62.0001 183.132 62.0001C180.946 62.0001 179.136 61.3921 177.703 60.176C176.27 58.9479 175.553 57.3827 175.553 55.4803C175.553 53.578 176.27 52.0128 177.703 50.7847ZM178.42 59.58C179.65 60.6636 181.221 61.2054 183.132 61.2054C185.043 61.2054 186.621 60.6696 187.866 59.5981C189.111 58.5145 189.734 57.1419 189.734 55.4803C189.734 53.8067 189.111 52.4342 187.866 51.3626C186.621 50.279 185.043 49.7372 183.132 49.7372C181.235 49.7372 179.665 50.279 178.42 51.3626C177.175 52.4342 176.552 53.8067 176.552 55.4803C176.552 57.1419 177.175 58.5084 178.42 59.58Z" fill="white"/>
<path d="M238.964 49.1381H240.033L244.331 59.5027H244.462L249.328 48.9425H249.633L254.499 59.5027H254.652L258.95 49.1381H260.019L254.739 61.7961H254.455L249.568 51.2892H249.415L244.506 61.7961H244.244L238.964 49.1381Z" fill="white"/>
</svg>
